<svg width="122" height="122" viewBox="0 0 122 122" fill="none" xmlns="http://www.w3.org/2000/svg">
<ellipse rx="4.44433" ry="4.44451" transform="matrix(1 0 8.23128e-05 1 5.43976 5.44329)" fill="url(#paint0_linear)"/>
<ellipse rx="4.44433" ry="4.44451" transform="matrix(1 0.000353443 0.000435251 1 27.6555 5.45268)" fill="url(#paint1_linear)"/>
<ellipse rx="4.44433" ry="4.44451" transform="matrix(1 0.000353443 0.000435251 1 49.869 5.46073)" fill="url(#paint2_linear)"/>
<ellipse rx="4.44432" ry="4.44451" transform="matrix(1 0.000352896 0.000435756 1 5.45095 27.6597)" fill="url(#paint3_linear)"/>
<ellipse rx="4.44432" ry="4.44451" transform="matrix(1 0.000353317 0.000435335 1 27.6652 27.6678)" fill="url(#paint4_linear)"/>
<ellipse rx="4.44432" ry="4.44451" transform="matrix(1 0.000353317 0.000435335 1 49.8787 27.6753)" fill="url(#paint5_linear)"/>
<ellipse rx="4.44432" ry="4.44451" transform="matrix(1 0.000352896 0.000435756 1 5.46061 49.8733)" fill="url(#paint6_linear)"/>
<ellipse rx="4.44432" ry="4.44451" transform="matrix(1 0.000353233 0.000435377 1 27.6755 49.8814)" fill="url(#paint7_linear)"/>
<ellipse rx="4.44432" ry="4.44451" transform="matrix(1 0.000353317 0.000435377 1 49.8884 49.889)" fill="url(#paint8_linear)"/>
<ellipse rx="4.44433" ry="4.44451" transform="matrix(1 0 8.23128e-05 1 5.43976 5.44329)" fill="url(#paint9_linear)"/>
<ellipse rx="4.44433" ry="4.44451" transform="matrix(1 0.000353443 0.000435251 1 27.6555 5.45268)" fill="url(#paint10_linear)"/>
<ellipse rx="4.44433" ry="4.44451" transform="matrix(1 0.000353443 0.000435251 1 49.869 5.46073)" fill="url(#paint11_linear)"/>
<ellipse rx="4.44432" ry="4.44451" transform="matrix(1 0.000352896 0.000435756 1 5.45095 27.6597)" fill="url(#paint12_linear)"/>
<ellipse rx="4.44432" ry="4.44451" transform="matrix(1 0.000353317 0.000435335 1 27.6652 27.6678)" fill="url(#paint13_linear)"/>
<ellipse rx="4.44432" ry="4.44451" transform="matrix(1 0.000353317 0.000435335 1 49.8787 27.6753)" fill="url(#paint14_linear)"/>
<ellipse rx="4.44432" ry="4.44451" transform="matrix(1 0.000352896 0.000435756 1 5.46061 49.8733)" fill="url(#paint15_linear)"/>
<ellipse rx="4.44432" ry="4.44451" transform="matrix(1 0.000353233 0.000435377 1 27.6755 49.8814)" fill="url(#paint16_linear)"/>
<ellipse rx="4.44432" ry="4.44451" transform="matrix(1 0.000353317 0.000435377 1 49.8884 49.889)" fill="url(#paint17_linear)"/>
<ellipse rx="4.44432" ry="4.44451" transform="matrix(1 0.000352896 0.000435756 1 5.47041 72.0872)" fill="url(#paint18_linear)"/>
<ellipse rx="4.44432" ry="4.44451" transform="matrix(1 0.000353317 0.000435377 1 27.6846 72.0953)" fill="url(#paint19_linear)"/>
<ellipse rx="4.44432" ry="4.44451" transform="matrix(1 0.000353317 0.000435377 1 49.898 72.1031)" fill="url(#paint20_linear)"/>
<ellipse rx="4.44432" ry="4.44451" transform="matrix(1 0.000352896 0.000435756 1 5.48009 94.3016)" fill="url(#paint21_linear)"/>
<ellipse rx="4.44432" ry="4.44451" transform="matrix(1 0.000353317 0.000435377 1 27.6948 94.3096)" fill="url(#paint22_linear)"/>
<ellipse rx="4.44432" ry="4.44451" transform="matrix(1 0.000353317 0.000435377 1 49.9078 94.3174)" fill="url(#paint23_linear)"/>
<ellipse rx="4.44432" ry="4.44451" transform="matrix(1 0.000352896 0.000435756 1 5.48978 116.516)" fill="url(#paint24_linear)"/>
<ellipse rx="4.44432" ry="4.44451" transform="matrix(1 0.000353317 0.000435377 1 27.7045 116.524)" fill="url(#paint25_linear)"/>
<ellipse rx="4.44432" ry="4.44451" transform="matrix(1 0.000353317 0.000435377 1 49.9174 116.532)" fill="url(#paint26_linear)"/>
<ellipse rx="4.44433" ry="4.44451" transform="matrix(1 0.000353443 0.000435251 1 72.0828 5.4683)" fill="url(#paint27_linear)"/>
<ellipse rx="4.44433" ry="4.44451" transform="matrix(1 0.000353443 0.000435251 1 94.297 5.47636)" fill="url(#paint28_linear)"/>
<ellipse rx="4.44433" ry="4.44451" transform="matrix(1 0.000353443 0.000435251 1 116.51 5.48417)" fill="url(#paint29_linear)"/>
<ellipse rx="4.44432" ry="4.44451" transform="matrix(1 0.000353317 0.000435335 1 72.0926 27.6834)" fill="url(#paint30_linear)"/>
<ellipse rx="4.44432" ry="4.44451" transform="matrix(1 0.000353317 0.000435419 1 94.3066 27.6912)" fill="url(#paint31_linear)"/>
<ellipse rx="4.44432" ry="4.44451" transform="matrix(1 0.000353317 0.000435419 1 116.52 27.6988)" fill="url(#paint32_linear)"/>
<ellipse rx="4.44432" ry="4.44451" transform="matrix(1 0.000353317 0.000435377 1 72.1022 49.8968)" fill="url(#paint33_linear)"/>
<ellipse rx="4.44432" ry="4.44451" transform="matrix(1 0.000353317 0.000435419 1 94.3162 49.9048)" fill="url(#paint34_linear)"/>
<ellipse rx="4.44432" ry="4.44451" transform="matrix(1 0.000353317 0.000435419 1 116.53 49.9124)" fill="url(#paint35_linear)"/>
<ellipse rx="4.44433" ry="4.44451" transform="matrix(1 0.000353443 0.000435251 1 72.0828 5.4683)" fill="url(#paint36_linear)"/>
<ellipse rx="4.44433" ry="4.44451" transform="matrix(1 0.000353443 0.000435251 1 94.297 5.47636)" fill="url(#paint37_linear)"/>
<ellipse rx="4.44433" ry="4.44451" transform="matrix(1 0.000353443 0.000435251 1 116.51 5.48417)" fill="url(#paint38_linear)"/>
<ellipse rx="4.44432" ry="4.44451" transform="matrix(1 0.000353317 0.000435335 1 72.0926 27.6834)" fill="url(#paint39_linear)"/>
<ellipse rx="4.44432" ry="4.44451" transform="matrix(1 0.000353317 0.000435419 1 94.3066 27.6912)" fill="url(#paint40_linear)"/>
<ellipse rx="4.44432" ry="4.44451" transform="matrix(1 0.000353317 0.000435419 1 116.52 27.6988)" fill="url(#paint41_linear)"/>
<ellipse rx="4.44432" ry="4.44451" transform="matrix(1 0.000353317 0.000435377 1 72.1022 49.8968)" fill="url(#paint42_linear)"/>
<ellipse rx="4.44432" ry="4.44451" transform="matrix(1 0.000353317 0.000435419 1 94.3162 49.9048)" fill="url(#paint43_linear)"/>
<ellipse rx="4.44432" ry="4.44451" transform="matrix(1 0.000353317 0.000435419 1 116.53 49.9124)" fill="url(#paint44_linear)"/>
<ellipse rx="4.44432" ry="4.44451" transform="matrix(1 0.000353317 0.000435377 1 72.1118 72.1111)" fill="url(#paint45_linear)"/>
<ellipse rx="4.44432" ry="4.44451" transform="matrix(1 0.000353317 0.000435377 1 94.3258 72.1187)" fill="url(#paint46_linear)"/>
<ellipse rx="4.44432" ry="4.44451" transform="matrix(1 0.000353317 0.000435377 1 116.539 72.1267)" fill="url(#paint47_linear)"/>
<ellipse rx="4.44432" ry="4.44451" transform="matrix(1 0.000353317 0.000435377 1 72.1214 94.325)" fill="url(#paint48_linear)"/>
<ellipse rx="4.44432" ry="4.44451" transform="matrix(1 0.000353317 0.000435377 1 94.3356 94.333)" fill="url(#paint49_linear)"/>
<ellipse rx="4.44432" ry="4.44451" transform="matrix(1 0.000353317 0.000435377 1 116.549 94.3409)" fill="url(#paint50_linear)"/>
<ellipse rx="4.44432" ry="4.44451" transform="matrix(1 0.000353317 0.000435377 1 72.1311 116.539)" fill="url(#paint51_linear)"/>
<ellipse rx="4.44432" ry="4.44451" transform="matrix(1 0.000353317 0.000435377 1 94.3452 116.547)" fill="url(#paint52_linear)"/>
<ellipse rx="4.44432" ry="4.44451" transform="matrix(1 0.000353317 0.000435377 1 116.559 116.555)" fill="url(#paint53_linear)"/>
<defs>
<linearGradient id="paint0_linear" x1="4.44433" y1="0" x2="4.44433" y2="8.88903" gradientUnits="userSpaceOnUse">
<stop stop-color="#442F9D"/>
<stop offset="1" stop-color="#A117D3"/>
</linearGradient>
<linearGradient id="paint1_linear" x1="4.44433" y1="0" x2="4.44433" y2="8.88903" gradientUnits="userSpaceOnUse">
<stop stop-color="#442F9D"/>
<stop offset="1" stop-color="#A117D3"/>
</linearGradient>
<linearGradient id="paint2_linear" x1="4.44433" y1="0" x2="4.44433" y2="8.88903" gradientUnits="userSpaceOnUse">
<stop stop-color="#442F9D"/>
<stop offset="1" stop-color="#A117D3"/>
</linearGradient>
<linearGradient id="paint3_linear" x1="4.44432" y1="0" x2="4.44432" y2="8.88903" gradientUnits="userSpaceOnUse">
<stop stop-color="#442F9D"/>
<stop offset="1" stop-color="#A117D3"/>
</linearGradient>
<linearGradient id="paint4_linear" x1="4.44432" y1="0" x2="4.44432" y2="8.88903" gradientUnits="userSpaceOnUse">
<stop stop-color="#442F9D"/>
<stop offset="1" stop-color="#A117D3"/>
</linearGradient>
<linearGradient id="paint5_linear" x1="4.44432" y1="0" x2="4.44432" y2="8.88903" gradientUnits="userSpaceOnUse">
<stop stop-color="#442F9D"/>
<stop offset="1" stop-color="#A117D3"/>
</linearGradient>
<linearGradient id="paint6_linear" x1="4.44432" y1="0" x2="4.44432" y2="8.88903" gradientUnits="userSpaceOnUse">
<stop stop-color="#442F9D"/>
<stop offset="1" stop-color="#A117D3"/>
</linearGradient>
<linearGradient id="paint7_linear" x1="4.44432" y1="0" x2="4.44432" y2="8.88903" gradientUnits="userSpaceOnUse">
<stop stop-color="#442F9D"/>
<stop offset="1" stop-color="#A117D3"/>
</linearGradient>
<linearGradient id="paint8_linear" x1="4.44432" y1="0" x2="4.44432" y2="8.88903" gradientUnits="userSpaceOnUse">
<stop stop-color="#442F9D"/>
<stop offset="1" stop-color="#A117D3"/>
</linearGradient>
<linearGradient id="paint9_linear" x1="4.44433" y1="0" x2="4.44433" y2="8.88903" gradientUnits="userSpaceOnUse">
<stop stop-color="#442F9D"/>
<stop offset="1" stop-color="#A117D3"/>
</linearGradient>
<linearGradient id="paint10_linear" x1="4.44433" y1="0" x2="4.44433" y2="8.88903" gradientUnits="userSpaceOnUse">
<stop stop-color="#442F9D"/>
<stop offset="1" stop-color="#A117D3"/>
</linearGradient>
<linearGradient id="paint11_linear" x1="4.44433" y1="0" x2="4.44433" y2="8.88903" gradientUnits="userSpaceOnUse">
<stop stop-color="#442F9D"/>
<stop offset="1" stop-color="#A117D3"/>
</linearGradient>
<linearGradient id="paint12_linear" x1="4.44432" y1="0" x2="4.44432" y2="8.88903" gradientUnits="userSpaceOnUse">
<stop stop-color="#442F9D"/>
<stop offset="1" stop-color="#A117D3"/>
</linearGradient>
<linearGradient id="paint13_linear" x1="4.44432" y1="0" x2="4.44432" y2="8.88903" gradientUnits="userSpaceOnUse">
<stop stop-color="#442F9D"/>
<stop offset="1" stop-color="#A117D3"/>
</linearGradient>
<linearGradient id="paint14_linear" x1="4.44432" y1="0" x2="4.44432" y2="8.88903" gradientUnits="userSpaceOnUse">
<stop stop-color="#442F9D"/>
<stop offset="1" stop-color="#A117D3"/>
</linearGradient>
<linearGradient id="paint15_linear" x1="4.44432" y1="0" x2="4.44432" y2="8.88903" gradientUnits="userSpaceOnUse">
<stop stop-color="#442F9D"/>
<stop offset="1" stop-color="#A117D3"/>
</linearGradient>
<linearGradient id="paint16_linear" x1="4.44432" y1="0" x2="4.44432" y2="8.88903" gradientUnits="userSpaceOnUse">
<stop stop-color="#442F9D"/>
<stop offset="1" stop-color="#A117D3"/>
</linearGradient>
<linearGradient id="paint17_linear" x1="4.44432" y1="0" x2="4.44432" y2="8.88903" gradientUnits="userSpaceOnUse">
<stop stop-color="#442F9D"/>
<stop offset="1" stop-color="#A117D3"/>
</linearGradient>
<linearGradient id="paint18_linear" x1="4.44432" y1="0" x2="4.44432" y2="8.88903" gradientUnits="userSpaceOnUse">
<stop stop-color="#442F9D"/>
<stop offset="1" stop-color="#A117D3"/>
</linearGradient>
<linearGradient id="paint19_linear" x1="4.44432" y1="0" x2="4.44432" y2="8.88903" gradientUnits="userSpaceOnUse">
<stop stop-color="#442F9D"/>
<stop offset="1" stop-color="#A117D3"/>
</linearGradient>
<linearGradient id="paint20_linear" x1="4.44432" y1="0" x2="4.44432" y2="8.88903" gradientUnits="userSpaceOnUse">
<stop stop-color="#442F9D"/>
<stop offset="1" stop-color="#A117D3"/>
</linearGradient>
<linearGradient id="paint21_linear" x1="4.44432" y1="0" x2="4.44432" y2="8.88903" gradientUnits="userSpaceOnUse">
<stop stop-color="#442F9D"/>
<stop offset="1" stop-color="#A117D3"/>
</linearGradient>
<linearGradient id="paint22_linear" x1="4.44432" y1="0" x2="4.44432" y2="8.88903" gradientUnits="userSpaceOnUse">
<stop stop-color="#442F9D"/>
<stop offset="1" stop-color="#A117D3"/>
</linearGradient>
<linearGradient id="paint23_linear" x1="4.44432" y1="0" x2="4.44432" y2="8.88903" gradientUnits="userSpaceOnUse">
<stop stop-color="#442F9D"/>
<stop offset="1" stop-color="#A117D3"/>
</linearGradient>
<linearGradient id="paint24_linear" x1="4.44432" y1="0" x2="4.44432" y2="8.88903" gradientUnits="userSpaceOnUse">
<stop stop-color="#442F9D"/>
<stop offset="1" stop-color="#A117D3"/>
</linearGradient>
<linearGradient id="paint25_linear" x1="4.44432" y1="0" x2="4.44432" y2="8.88903" gradientUnits="userSpaceOnUse">
<stop stop-color="#442F9D"/>
<stop offset="1" stop-color="#A117D3"/>
</linearGradient>
<linearGradient id="paint26_linear" x1="4.44432" y1="0" x2="4.44432" y2="8.88903" gradientUnits="userSpaceOnUse">
<stop stop-color="#442F9D"/>
<stop offset="1" stop-color="#A117D3"/>
</linearGradient>
<linearGradient id="paint27_linear" x1="4.44433" y1="0" x2="4.44433" y2="8.88903" gradientUnits="userSpaceOnUse">
<stop stop-color="#442F9D"/>
<stop offset="1" stop-color="#A117D3"/>
</linearGradient>
<linearGradient id="paint28_linear" x1="4.44433" y1="0" x2="4.44433" y2="8.88903" gradientUnits="userSpaceOnUse">
<stop stop-color="#442F9D"/>
<stop offset="1" stop-color="#A117D3"/>
</linearGradient>
<linearGradient id="paint29_linear" x1="4.44433" y1="0" x2="4.44433" y2="8.88903" gradientUnits="userSpaceOnUse">
<stop stop-color="#442F9D"/>
<stop offset="1" stop-color="#A117D3"/>
</linearGradient>
<linearGradient id="paint30_linear" x1="4.44432" y1="0" x2="4.44432" y2="8.88903" gradientUnits="userSpaceOnUse">
<stop stop-color="#442F9D"/>
<stop offset="1" stop-color="#A117D3"/>
</linearGradient>
<linearGradient id="paint31_linear" x1="4.44432" y1="0" x2="4.44432" y2="8.88903" gradientUnits="userSpaceOnUse">
<stop stop-color="#442F9D"/>
<stop offset="1" stop-color="#A117D3"/>
</linearGradient>
<linearGradient id="paint32_linear" x1="4.44432" y1="0" x2="4.44432" y2="8.88903" gradientUnits="userSpaceOnUse">
<stop stop-color="#442F9D"/>
<stop offset="1" stop-color="#A117D3"/>
</linearGradient>
<linearGradient id="paint33_linear" x1="4.44432" y1="0" x2="4.44432" y2="8.88903" gradientUnits="userSpaceOnUse">
<stop stop-color="#442F9D"/>
<stop offset="1" stop-color="#A117D3"/>
</linearGradient>
<linearGradient id="paint34_linear" x1="4.44432" y1="0" x2="4.44432" y2="8.88903" gradientUnits="userSpaceOnUse">
<stop stop-color="#442F9D"/>
<stop offset="1" stop-color="#A117D3"/>
</linearGradient>
<linearGradient id="paint35_linear" x1="4.44432" y1="0" x2="4.44432" y2="8.88903" gradientUnits="userSpaceOnUse">
<stop stop-color="#442F9D"/>
<stop offset="1" stop-color="#A117D3"/>
</linearGradient>
<linearGradient id="paint36_linear" x1="4.44433" y1="0" x2="4.44433" y2="8.88903" gradientUnits="userSpaceOnUse">
<stop stop-color="#442F9D"/>
<stop offset="1" stop-color="#A117D3"/>
</linearGradient>
<linearGradient id="paint37_linear" x1="4.44433" y1="0" x2="4.44433" y2="8.88903" gradientUnits="userSpaceOnUse">
<stop stop-color="#442F9D"/>
<stop offset="1" stop-color="#A117D3"/>
</linearGradient>
<linearGradient id="paint38_linear" x1="4.44433" y1="0" x2="4.44433" y2="8.88903" gradientUnits="userSpaceOnUse">
<stop stop-color="#442F9D"/>
<stop offset="1" stop-color="#A117D3"/>
</linearGradient>
<linearGradient id="paint39_linear" x1="4.44432" y1="0" x2="4.44432" y2="8.88903" gradientUnits="userSpaceOnUse">
<stop stop-color="#442F9D"/>
<stop offset="1" stop-color="#A117D3"/>
</linearGradient>
<linearGradient id="paint40_linear" x1="4.44432" y1="0" x2="4.44432" y2="8.88903" gradientUnits="userSpaceOnUse">
<stop stop-color="#442F9D"/>
<stop offset="1" stop-color="#A117D3"/>
</linearGradient>
<linearGradient id="paint41_linear" x1="4.44432" y1="0" x2="4.44432" y2="8.88903" gradientUnits="userSpaceOnUse">
<stop stop-color="#442F9D"/>
<stop offset="1" stop-color="#A117D3"/>
</linearGradient>
<linearGradient id="paint42_linear" x1="4.44432" y1="0" x2="4.44432" y2="8.88903" gradientUnits="userSpaceOnUse">
<stop stop-color="#442F9D"/>
<stop offset="1" stop-color="#A117D3"/>
</linearGradient>
<linearGradient id="paint43_linear" x1="4.44432" y1="0" x2="4.44432" y2="8.88903" gradientUnits="userSpaceOnUse">
<stop stop-color="#442F9D"/>
<stop offset="1" stop-color="#A117D3"/>
</linearGradient>
<linearGradient id="paint44_linear" x1="4.44432" y1="0" x2="4.44432" y2="8.88903" gradientUnits="userSpaceOnUse">
<stop stop-color="#442F9D"/>
<stop offset="1" stop-color="#A117D3"/>
</linearGradient>
<linearGradient id="paint45_linear" x1="4.44432" y1="0" x2="4.44432" y2="8.88903" gradientUnits="userSpaceOnUse">
<stop stop-color="#442F9D"/>
<stop offset="1" stop-color="#A117D3"/>
</linearGradient>
<linearGradient id="paint46_linear" x1="4.44432" y1="0" x2="4.44432" y2="8.88903" gradientUnits="userSpaceOnUse">
<stop stop-color="#442F9D"/>
<stop offset="1" stop-color="#A117D3"/>
</linearGradient>
<linearGradient id="paint47_linear" x1="4.44432" y1="0" x2="4.44432" y2="8.88903" gradientUnits="userSpaceOnUse">
<stop stop-color="#442F9D"/>
<stop offset="1" stop-color="#A117D3"/>
</linearGradient>
<linearGradient id="paint48_linear" x1="4.44432" y1="0" x2="4.44432" y2="8.88903" gradientUnits="userSpaceOnUse">
<stop stop-color="#442F9D"/>
<stop offset="1" stop-color="#A117D3"/>
</linearGradient>
<linearGradient id="paint49_linear" x1="4.44432" y1="0" x2="4.44432" y2="8.88903" gradientUnits="userSpaceOnUse">
<stop stop-color="#442F9D"/>
<stop offset="1" stop-color="#A117D3"/>
</linearGradient>
<linearGradient id="paint50_linear" x1="4.44432" y1="0" x2="4.44432" y2="8.88903" gradientUnits="userSpaceOnUse">
<stop stop-color="#442F9D"/>
<stop offset="1" stop-color="#A117D3"/>
</linearGradient>
<linearGradient id="paint51_linear" x1="4.44432" y1="0" x2="4.44432" y2="8.88903" gradientUnits="userSpaceOnUse">
<stop stop-color="#442F9D"/>
<stop offset="1" stop-color="#A117D3"/>
</linearGradient>
<linearGradient id="paint52_linear" x1="4.44432" y1="0" x2="4.44432" y2="8.88903" gradientUnits="userSpaceOnUse">
<stop stop-color="#442F9D"/>
<stop offset="1" stop-color="#A117D3"/>
</linearGradient>
<linearGradient id="paint53_linear" x1="4.44432" y1="0" x2="4.44432" y2="8.88903" gradientUnits="userSpaceOnUse">
<stop stop-color="#442F9D"/>
<stop offset="1" stop-color="#A117D3"/>
</linearGradient>
</defs>
</svg>
