<svg width="65" height="65" viewBox="0 0 65 65" fill="none" xmlns="http://www.w3.org/2000/svg">
<ellipse rx="2.37042" ry="2.37052" transform="matrix(1 0 8.22375e-05 1 2.66285 2.77896)" fill="url(#paint0_linear_311_903)"/>
<ellipse rx="2.37042" ry="2.37052" transform="matrix(1 0.000353469 0.000435163 1 14.5115 2.7842)" fill="url(#paint1_linear_311_903)"/>
<ellipse rx="2.37042" ry="2.37052" transform="matrix(1 0.000353451 0.000435186 1 26.3586 2.7881)" fill="url(#paint2_linear_311_903)"/>
<ellipse rx="2.37042" ry="2.37052" transform="matrix(1 0.000352897 0.000435683 1 2.66881 14.6277)" fill="url(#paint3_linear_311_903)"/>
<ellipse rx="2.37042" ry="2.37052" transform="matrix(1 0.000353308 0.000435244 1 14.5159 14.6319)" fill="url(#paint4_linear_311_903)"/>
<ellipse rx="2.37042" ry="2.37052" transform="matrix(1 0.000353317 0.000435233 1 26.3633 14.636)" fill="url(#paint5_linear_311_903)"/>
<ellipse rx="2.37042" ry="2.37052" transform="matrix(1 0.000352887 0.000435694 1 2.67394 26.4749)" fill="url(#paint6_linear_311_903)"/>
<ellipse rx="2.37042" ry="2.37052" transform="matrix(1 0.000353235 0.000435317 1 14.5221 26.4793)" fill="url(#paint7_linear_311_903)"/>
<ellipse rx="2.37042" ry="2.37052" transform="matrix(1 0.000353308 0.000435317 1 26.3689 26.4834)" fill="url(#paint8_linear_311_903)"/>
<ellipse rx="2.37042" ry="2.37052" transform="matrix(1 0 8.22375e-05 1 2.66285 2.77896)" fill="url(#paint9_linear_311_903)"/>
<ellipse rx="2.37042" ry="2.37052" transform="matrix(1 0.000353469 0.000435163 1 14.5115 2.7842)" fill="url(#paint10_linear_311_903)"/>
<ellipse rx="2.37042" ry="2.37052" transform="matrix(1 0.000353451 0.000435186 1 26.3586 2.7881)" fill="url(#paint11_linear_311_903)"/>
<ellipse rx="2.37042" ry="2.37052" transform="matrix(1 0.000352897 0.000435683 1 2.66881 14.6277)" fill="url(#paint12_linear_311_903)"/>
<ellipse rx="2.37042" ry="2.37052" transform="matrix(1 0.000353308 0.000435244 1 14.5159 14.6319)" fill="url(#paint13_linear_311_903)"/>
<ellipse rx="2.37042" ry="2.37052" transform="matrix(1 0.000353317 0.000435233 1 26.3633 14.636)" fill="url(#paint14_linear_311_903)"/>
<ellipse rx="2.37042" ry="2.37052" transform="matrix(1 0.000352887 0.000435694 1 2.67394 26.4749)" fill="url(#paint15_linear_311_903)"/>
<ellipse rx="2.37042" ry="2.37052" transform="matrix(1 0.000353235 0.000435317 1 14.5221 26.4793)" fill="url(#paint16_linear_311_903)"/>
<ellipse rx="2.37042" ry="2.37052" transform="matrix(1 0.000353308 0.000435317 1 26.3689 26.4834)" fill="url(#paint17_linear_311_903)"/>
<ellipse rx="2.37042" ry="2.37052" transform="matrix(1 0.000352887 0.000435694 1 2.67956 38.3228)" fill="url(#paint18_linear_311_903)"/>
<ellipse rx="2.37042" ry="2.37052" transform="matrix(1 0.000353308 0.000435317 1 14.5262 38.3264)" fill="url(#paint19_linear_311_903)"/>
<ellipse rx="2.37042" ry="2.37052" transform="matrix(1 0.000353308 0.000435317 1 26.3735 38.3308)" fill="url(#paint20_linear_311_903)"/>
<ellipse rx="2.37042" ry="2.37052" transform="matrix(1 0.000352887 0.000435694 1 2.68432 50.1699)" fill="url(#paint21_linear_311_903)"/>
<ellipse rx="2.37042" ry="2.37052" transform="matrix(1 0.000353308 0.000435317 1 14.5321 50.1743)" fill="url(#paint22_linear_311_903)"/>
<ellipse rx="2.37042" ry="2.37052" transform="matrix(1 0.000353308 0.000435317 1 26.3794 50.1787)" fill="url(#paint23_linear_311_903)"/>
<ellipse rx="2.37042" ry="2.37052" transform="matrix(1 0.000352897 0.000435683 1 2.69018 62.0178)" fill="url(#paint24_linear_311_903)"/>
<ellipse rx="2.37042" ry="2.37052" transform="matrix(1 0.000353308 0.000435317 1 14.5367 62.0217)" fill="url(#paint25_linear_311_903)"/>
<ellipse rx="2.37042" ry="2.37052" transform="matrix(1 0.000353308 0.000435317 1 26.3837 62.0257)" fill="url(#paint26_linear_311_903)"/>
<ellipse rx="2.37042" ry="2.37052" transform="matrix(1 0.000353451 0.000435186 1 38.2059 2.7925)" fill="url(#paint27_linear_311_903)"/>
<ellipse rx="2.37042" ry="2.37052" transform="matrix(1 0.000353451 0.000435186 1 50.0538 2.79665)" fill="url(#paint28_linear_311_903)"/>
<ellipse rx="2.37042" ry="2.37052" transform="matrix(1 0.000353451 0.000435186 1 61.9011 2.80104)" fill="url(#paint29_linear_311_903)"/>
<ellipse rx="2.37042" ry="2.37052" transform="matrix(1 0.000353308 0.000435244 1 38.2108 14.6402)" fill="url(#paint30_linear_311_903)"/>
<ellipse rx="2.37042" ry="2.37052" transform="matrix(1 0.000353326 0.000435324 1 50.0581 14.6443)" fill="url(#paint31_linear_311_903)"/>
<ellipse rx="2.37042" ry="2.37052" transform="matrix(1 0.000353326 0.000435324 1 61.9055 14.6485)" fill="url(#paint32_linear_311_903)"/>
<ellipse rx="2.37042" ry="2.37052" transform="matrix(1 0.000353317 0.000435306 1 38.2163 26.4876)" fill="url(#paint33_linear_311_903)"/>
<ellipse rx="2.37042" ry="2.37052" transform="matrix(1 0.000353308 0.000435346 1 50.0638 26.4917)" fill="url(#paint34_linear_311_903)"/>
<ellipse rx="2.37042" ry="2.37052" transform="matrix(1 0.000353317 0.000435335 1 61.9112 26.4959)" fill="url(#paint35_linear_311_903)"/>
<ellipse rx="2.37042" ry="2.37052" transform="matrix(1 0.000353451 0.000435186 1 38.2059 2.7925)" fill="url(#paint36_linear_311_903)"/>
<ellipse rx="2.37042" ry="2.37052" transform="matrix(1 0.000353451 0.000435186 1 50.0538 2.79665)" fill="url(#paint37_linear_311_903)"/>
<ellipse rx="2.37042" ry="2.37052" transform="matrix(1 0.000353451 0.000435186 1 61.9011 2.80104)" fill="url(#paint38_linear_311_903)"/>
<ellipse rx="2.37042" ry="2.37052" transform="matrix(1 0.000353308 0.000435244 1 38.2108 14.6402)" fill="url(#paint39_linear_311_903)"/>
<ellipse rx="2.37042" ry="2.37052" transform="matrix(1 0.000353326 0.000435324 1 50.0581 14.6443)" fill="url(#paint40_linear_311_903)"/>
<ellipse rx="2.37042" ry="2.37052" transform="matrix(1 0.000353326 0.000435324 1 61.9055 14.6485)" fill="url(#paint41_linear_311_903)"/>
<ellipse rx="2.37042" ry="2.37052" transform="matrix(1 0.000353317 0.000435306 1 38.2163 26.4876)" fill="url(#paint42_linear_311_903)"/>
<ellipse rx="2.37042" ry="2.37052" transform="matrix(1 0.000353308 0.000435346 1 50.0638 26.4917)" fill="url(#paint43_linear_311_903)"/>
<ellipse rx="2.37042" ry="2.37052" transform="matrix(1 0.000353317 0.000435335 1 61.9112 26.4959)" fill="url(#paint44_linear_311_903)"/>
<ellipse rx="2.37042" ry="2.37052" transform="matrix(1 0.000353308 0.000435317 1 38.2209 38.335)" fill="url(#paint45_linear_311_903)"/>
<ellipse rx="2.37042" ry="2.37052" transform="matrix(1 0.000353308 0.000435317 1 50.0685 38.3391)" fill="url(#paint46_linear_311_903)"/>
<ellipse rx="2.37042" ry="2.37052" transform="matrix(1 0.000353308 0.000435317 1 61.9158 38.3435)" fill="url(#paint47_linear_311_903)"/>
<ellipse rx="2.37042" ry="2.37052" transform="matrix(1 0.000353308 0.000435317 1 38.2267 50.1829)" fill="url(#paint48_linear_311_903)"/>
<ellipse rx="2.37042" ry="2.37052" transform="matrix(1 0.000353308 0.000435317 1 50.0743 50.187)" fill="url(#paint49_linear_311_903)"/>
<ellipse rx="2.37042" ry="2.37052" transform="matrix(1 0.000353308 0.000435317 1 61.9216 50.1912)" fill="url(#paint50_linear_311_903)"/>
<ellipse rx="2.37042" ry="2.37052" transform="matrix(1 0.000353308 0.000435317 1 38.2312 62.03)" fill="url(#paint51_linear_311_903)"/>
<ellipse rx="2.37042" ry="2.37052" transform="matrix(1 0.000353308 0.000435317 1 50.0788 62.0342)" fill="url(#paint52_linear_311_903)"/>
<ellipse rx="2.37042" ry="2.37052" transform="matrix(1 0.000353308 0.000435317 1 61.9259 62.0383)" fill="url(#paint53_linear_311_903)"/>
<defs>
<linearGradient id="paint0_linear_311_903" x1="2.37042" y1="0" x2="2.37042" y2="4.74103" gradientUnits="userSpaceOnUse">
<stop stop-color="#FFC172"/>
<stop offset="0.760995" stop-color="#A55D00"/>
</linearGradient>
<linearGradient id="paint1_linear_311_903" x1="2.37042" y1="0" x2="2.37042" y2="4.74103" gradientUnits="userSpaceOnUse">
<stop stop-color="#FFC172"/>
<stop offset="0.760995" stop-color="#A55D00"/>
</linearGradient>
<linearGradient id="paint2_linear_311_903" x1="2.37042" y1="0" x2="2.37042" y2="4.74103" gradientUnits="userSpaceOnUse">
<stop stop-color="#FFC172"/>
<stop offset="0.760995" stop-color="#A55D00"/>
</linearGradient>
<linearGradient id="paint3_linear_311_903" x1="2.37042" y1="0" x2="2.37042" y2="4.74103" gradientUnits="userSpaceOnUse">
<stop stop-color="#FFC172"/>
<stop offset="0.760995" stop-color="#A55D00"/>
</linearGradient>
<linearGradient id="paint4_linear_311_903" x1="2.37042" y1="0" x2="2.37042" y2="4.74103" gradientUnits="userSpaceOnUse">
<stop stop-color="#FFC172"/>
<stop offset="0.760995" stop-color="#A55D00"/>
</linearGradient>
<linearGradient id="paint5_linear_311_903" x1="2.37042" y1="0" x2="2.37042" y2="4.74103" gradientUnits="userSpaceOnUse">
<stop stop-color="#FFC172"/>
<stop offset="0.760995" stop-color="#A55D00"/>
</linearGradient>
<linearGradient id="paint6_linear_311_903" x1="2.37042" y1="0" x2="2.37042" y2="4.74103" gradientUnits="userSpaceOnUse">
<stop stop-color="#FFC172"/>
<stop offset="0.760995" stop-color="#A55D00"/>
</linearGradient>
<linearGradient id="paint7_linear_311_903" x1="2.37042" y1="0" x2="2.37042" y2="4.74103" gradientUnits="userSpaceOnUse">
<stop stop-color="#FFC172"/>
<stop offset="0.760995" stop-color="#A55D00"/>
</linearGradient>
<linearGradient id="paint8_linear_311_903" x1="2.37042" y1="0" x2="2.37042" y2="4.74103" gradientUnits="userSpaceOnUse">
<stop stop-color="#FFC172"/>
<stop offset="0.760995" stop-color="#A55D00"/>
</linearGradient>
<linearGradient id="paint9_linear_311_903" x1="2.37042" y1="0" x2="2.37042" y2="4.74103" gradientUnits="userSpaceOnUse">
<stop stop-color="#FFC172"/>
<stop offset="0.760995" stop-color="#A55D00"/>
</linearGradient>
<linearGradient id="paint10_linear_311_903" x1="2.37042" y1="0" x2="2.37042" y2="4.74103" gradientUnits="userSpaceOnUse">
<stop stop-color="#FFC172"/>
<stop offset="0.760995" stop-color="#A55D00"/>
</linearGradient>
<linearGradient id="paint11_linear_311_903" x1="2.37042" y1="0" x2="2.37042" y2="4.74103" gradientUnits="userSpaceOnUse">
<stop stop-color="#FFC172"/>
<stop offset="0.760995" stop-color="#A55D00"/>
</linearGradient>
<linearGradient id="paint12_linear_311_903" x1="2.37042" y1="0" x2="2.37042" y2="4.74103" gradientUnits="userSpaceOnUse">
<stop stop-color="#FFC172"/>
<stop offset="0.760995" stop-color="#A55D00"/>
</linearGradient>
<linearGradient id="paint13_linear_311_903" x1="2.37042" y1="0" x2="2.37042" y2="4.74103" gradientUnits="userSpaceOnUse">
<stop stop-color="#FFC172"/>
<stop offset="0.760995" stop-color="#A55D00"/>
</linearGradient>
<linearGradient id="paint14_linear_311_903" x1="2.37042" y1="0" x2="2.37042" y2="4.74103" gradientUnits="userSpaceOnUse">
<stop stop-color="#FFC172"/>
<stop offset="0.760995" stop-color="#A55D00"/>
</linearGradient>
<linearGradient id="paint15_linear_311_903" x1="2.37042" y1="0" x2="2.37042" y2="4.74103" gradientUnits="userSpaceOnUse">
<stop stop-color="#FFC172"/>
<stop offset="0.760995" stop-color="#A55D00"/>
</linearGradient>
<linearGradient id="paint16_linear_311_903" x1="2.37042" y1="0" x2="2.37042" y2="4.74103" gradientUnits="userSpaceOnUse">
<stop stop-color="#FFC172"/>
<stop offset="0.760995" stop-color="#A55D00"/>
</linearGradient>
<linearGradient id="paint17_linear_311_903" x1="2.37042" y1="0" x2="2.37042" y2="4.74103" gradientUnits="userSpaceOnUse">
<stop stop-color="#FFC172"/>
<stop offset="0.760995" stop-color="#A55D00"/>
</linearGradient>
<linearGradient id="paint18_linear_311_903" x1="2.37042" y1="0" x2="2.37042" y2="4.74103" gradientUnits="userSpaceOnUse">
<stop stop-color="#FFC172"/>
<stop offset="0.760995" stop-color="#A55D00"/>
</linearGradient>
<linearGradient id="paint19_linear_311_903" x1="2.37042" y1="0" x2="2.37042" y2="4.74103" gradientUnits="userSpaceOnUse">
<stop stop-color="#FFC172"/>
<stop offset="0.760995" stop-color="#A55D00"/>
</linearGradient>
<linearGradient id="paint20_linear_311_903" x1="2.37042" y1="0" x2="2.37042" y2="4.74103" gradientUnits="userSpaceOnUse">
<stop stop-color="#FFC172"/>
<stop offset="0.760995" stop-color="#A55D00"/>
</linearGradient>
<linearGradient id="paint21_linear_311_903" x1="2.37042" y1="0" x2="2.37042" y2="4.74103" gradientUnits="userSpaceOnUse">
<stop stop-color="#FFC172"/>
<stop offset="0.760995" stop-color="#A55D00"/>
</linearGradient>
<linearGradient id="paint22_linear_311_903" x1="2.37042" y1="0" x2="2.37042" y2="4.74103" gradientUnits="userSpaceOnUse">
<stop stop-color="#FFC172"/>
<stop offset="0.760995" stop-color="#A55D00"/>
</linearGradient>
<linearGradient id="paint23_linear_311_903" x1="2.37042" y1="0" x2="2.37042" y2="4.74103" gradientUnits="userSpaceOnUse">
<stop stop-color="#FFC172"/>
<stop offset="0.760995" stop-color="#A55D00"/>
</linearGradient>
<linearGradient id="paint24_linear_311_903" x1="2.37042" y1="0" x2="2.37042" y2="4.74103" gradientUnits="userSpaceOnUse">
<stop stop-color="#FFC172"/>
<stop offset="0.760995" stop-color="#A55D00"/>
</linearGradient>
<linearGradient id="paint25_linear_311_903" x1="2.37042" y1="0" x2="2.37042" y2="4.74103" gradientUnits="userSpaceOnUse">
<stop stop-color="#FFC172"/>
<stop offset="0.760995" stop-color="#A55D00"/>
</linearGradient>
<linearGradient id="paint26_linear_311_903" x1="2.37042" y1="0" x2="2.37042" y2="4.74103" gradientUnits="userSpaceOnUse">
<stop stop-color="#FFC172"/>
<stop offset="0.760995" stop-color="#A55D00"/>
</linearGradient>
<linearGradient id="paint27_linear_311_903" x1="2.37042" y1="0" x2="2.37042" y2="4.74103" gradientUnits="userSpaceOnUse">
<stop stop-color="#FFC172"/>
<stop offset="0.760995" stop-color="#A55D00"/>
</linearGradient>
<linearGradient id="paint28_linear_311_903" x1="2.37042" y1="0" x2="2.37042" y2="4.74103" gradientUnits="userSpaceOnUse">
<stop stop-color="#FFC172"/>
<stop offset="0.760995" stop-color="#A55D00"/>
</linearGradient>
<linearGradient id="paint29_linear_311_903" x1="2.37042" y1="0" x2="2.37042" y2="4.74103" gradientUnits="userSpaceOnUse">
<stop stop-color="#FFC172"/>
<stop offset="0.760995" stop-color="#A55D00"/>
</linearGradient>
<linearGradient id="paint30_linear_311_903" x1="2.37042" y1="0" x2="2.37042" y2="4.74103" gradientUnits="userSpaceOnUse">
<stop stop-color="#FFC172"/>
<stop offset="0.760995" stop-color="#A55D00"/>
</linearGradient>
<linearGradient id="paint31_linear_311_903" x1="2.37042" y1="0" x2="2.37042" y2="4.74103" gradientUnits="userSpaceOnUse">
<stop stop-color="#FFC172"/>
<stop offset="0.760995" stop-color="#A55D00"/>
</linearGradient>
<linearGradient id="paint32_linear_311_903" x1="2.37042" y1="0" x2="2.37042" y2="4.74103" gradientUnits="userSpaceOnUse">
<stop stop-color="#FFC172"/>
<stop offset="0.760995" stop-color="#A55D00"/>
</linearGradient>
<linearGradient id="paint33_linear_311_903" x1="2.37042" y1="0" x2="2.37042" y2="4.74103" gradientUnits="userSpaceOnUse">
<stop stop-color="#FFC172"/>
<stop offset="0.760995" stop-color="#A55D00"/>
</linearGradient>
<linearGradient id="paint34_linear_311_903" x1="2.37042" y1="0" x2="2.37042" y2="4.74103" gradientUnits="userSpaceOnUse">
<stop stop-color="#FFC172"/>
<stop offset="0.760995" stop-color="#A55D00"/>
</linearGradient>
<linearGradient id="paint35_linear_311_903" x1="2.37042" y1="0" x2="2.37042" y2="4.74103" gradientUnits="userSpaceOnUse">
<stop stop-color="#FFC172"/>
<stop offset="0.760995" stop-color="#A55D00"/>
</linearGradient>
<linearGradient id="paint36_linear_311_903" x1="2.37042" y1="0" x2="2.37042" y2="4.74103" gradientUnits="userSpaceOnUse">
<stop stop-color="#FFC172"/>
<stop offset="0.760995" stop-color="#A55D00"/>
</linearGradient>
<linearGradient id="paint37_linear_311_903" x1="2.37042" y1="0" x2="2.37042" y2="4.74103" gradientUnits="userSpaceOnUse">
<stop stop-color="#FFC172"/>
<stop offset="0.760995" stop-color="#A55D00"/>
</linearGradient>
<linearGradient id="paint38_linear_311_903" x1="2.37042" y1="0" x2="2.37042" y2="4.74103" gradientUnits="userSpaceOnUse">
<stop stop-color="#FFC172"/>
<stop offset="0.760995" stop-color="#A55D00"/>
</linearGradient>
<linearGradient id="paint39_linear_311_903" x1="2.37042" y1="0" x2="2.37042" y2="4.74103" gradientUnits="userSpaceOnUse">
<stop stop-color="#FFC172"/>
<stop offset="0.760995" stop-color="#A55D00"/>
</linearGradient>
<linearGradient id="paint40_linear_311_903" x1="2.37042" y1="0" x2="2.37042" y2="4.74103" gradientUnits="userSpaceOnUse">
<stop stop-color="#FFC172"/>
<stop offset="0.760995" stop-color="#A55D00"/>
</linearGradient>
<linearGradient id="paint41_linear_311_903" x1="2.37042" y1="0" x2="2.37042" y2="4.74103" gradientUnits="userSpaceOnUse">
<stop stop-color="#FFC172"/>
<stop offset="0.760995" stop-color="#A55D00"/>
</linearGradient>
<linearGradient id="paint42_linear_311_903" x1="2.37042" y1="0" x2="2.37042" y2="4.74103" gradientUnits="userSpaceOnUse">
<stop stop-color="#FFC172"/>
<stop offset="0.760995" stop-color="#A55D00"/>
</linearGradient>
<linearGradient id="paint43_linear_311_903" x1="2.37042" y1="0" x2="2.37042" y2="4.74103" gradientUnits="userSpaceOnUse">
<stop stop-color="#FFC172"/>
<stop offset="0.760995" stop-color="#A55D00"/>
</linearGradient>
<linearGradient id="paint44_linear_311_903" x1="2.37042" y1="0" x2="2.37042" y2="4.74103" gradientUnits="userSpaceOnUse">
<stop stop-color="#FFC172"/>
<stop offset="0.760995" stop-color="#A55D00"/>
</linearGradient>
<linearGradient id="paint45_linear_311_903" x1="2.37042" y1="0" x2="2.37042" y2="4.74103" gradientUnits="userSpaceOnUse">
<stop stop-color="#FFC172"/>
<stop offset="0.760995" stop-color="#A55D00"/>
</linearGradient>
<linearGradient id="paint46_linear_311_903" x1="2.37042" y1="0" x2="2.37042" y2="4.74103" gradientUnits="userSpaceOnUse">
<stop stop-color="#FFC172"/>
<stop offset="0.760995" stop-color="#A55D00"/>
</linearGradient>
<linearGradient id="paint47_linear_311_903" x1="2.37042" y1="0" x2="2.37042" y2="4.74103" gradientUnits="userSpaceOnUse">
<stop stop-color="#FFC172"/>
<stop offset="0.760995" stop-color="#A55D00"/>
</linearGradient>
<linearGradient id="paint48_linear_311_903" x1="2.37042" y1="0" x2="2.37042" y2="4.74103" gradientUnits="userSpaceOnUse">
<stop stop-color="#FFC172"/>
<stop offset="0.760995" stop-color="#A55D00"/>
</linearGradient>
<linearGradient id="paint49_linear_311_903" x1="2.37042" y1="0" x2="2.37042" y2="4.74103" gradientUnits="userSpaceOnUse">
<stop stop-color="#FFC172"/>
<stop offset="0.760995" stop-color="#A55D00"/>
</linearGradient>
<linearGradient id="paint50_linear_311_903" x1="2.37042" y1="0" x2="2.37042" y2="4.74103" gradientUnits="userSpaceOnUse">
<stop stop-color="#FFC172"/>
<stop offset="0.760995" stop-color="#A55D00"/>
</linearGradient>
<linearGradient id="paint51_linear_311_903" x1="2.37042" y1="0" x2="2.37042" y2="4.74103" gradientUnits="userSpaceOnUse">
<stop stop-color="#FFC172"/>
<stop offset="0.760995" stop-color="#A55D00"/>
</linearGradient>
<linearGradient id="paint52_linear_311_903" x1="2.37042" y1="0" x2="2.37042" y2="4.74103" gradientUnits="userSpaceOnUse">
<stop stop-color="#FFC172"/>
<stop offset="0.760995" stop-color="#A55D00"/>
</linearGradient>
<linearGradient id="paint53_linear_311_903" x1="2.37042" y1="0" x2="2.37042" y2="4.74103" gradientUnits="userSpaceOnUse">
<stop stop-color="#FFC172"/>
<stop offset="0.760995" stop-color="#A55D00"/>
</linearGradient>
</defs>
</svg>
