<svg width="202" height="306" viewBox="0 0 202 306" fill="none" xmlns="http://www.w3.org/2000/svg">
<ellipse rx="8" ry="8.00034" transform="matrix(0.707107 -0.707107 0.707165 0.707049 11.8337 152.732)" fill="#003B89"/>
<ellipse rx="8" ry="8.00034" transform="matrix(0.707357 -0.706857 0.707414 0.706799 40.1211 124.469)" fill="#003B89"/>
<ellipse rx="8" ry="8.00034" transform="matrix(0.707357 -0.706857 0.707414 0.706799 68.4039 96.2066)" fill="#003B89"/>
<ellipse rx="8" ry="8.00034" transform="matrix(0.707356 -0.706857 0.707415 0.706799 40.1242 180.994)" fill="#003B89"/>
<ellipse rx="8" ry="8.00034" transform="matrix(0.707357 -0.706857 0.707415 0.706799 68.4078 152.731)" fill="#003B89"/>
<ellipse rx="8" ry="8.00034" transform="matrix(0.707357 -0.706857 0.707415 0.706799 96.6904 124.468)" fill="#003B89"/>
<ellipse rx="8" ry="8.00034" transform="matrix(0.707356 -0.706857 0.707415 0.706799 68.4094 209.255)" fill="#003B89"/>
<ellipse rx="8" ry="8.00034" transform="matrix(0.707357 -0.706857 0.707415 0.706799 96.6937 180.99)" fill="#003B89"/>
<ellipse rx="8" ry="8.00034" transform="matrix(0.707357 -0.706857 0.707415 0.706799 124.975 152.729)" fill="#003B89"/>
<ellipse rx="8" ry="8.00034" transform="matrix(0.707107 -0.707107 0.707165 0.707049 11.8337 152.732)" fill="#003B89"/>
<ellipse rx="8" ry="8.00034" transform="matrix(0.707357 -0.706857 0.707414 0.706799 40.1211 124.469)" fill="#003B89"/>
<ellipse rx="8" ry="8.00034" transform="matrix(0.707357 -0.706857 0.707414 0.706799 68.4039 96.2066)" fill="#003B89"/>
<ellipse rx="8" ry="8.00034" transform="matrix(0.707356 -0.706857 0.707415 0.706799 40.1242 180.994)" fill="#003B89"/>
<ellipse rx="8" ry="8.00034" transform="matrix(0.707357 -0.706857 0.707415 0.706799 68.4078 152.731)" fill="#003B89"/>
<ellipse rx="8" ry="8.00034" transform="matrix(0.707357 -0.706857 0.707415 0.706799 96.6904 124.468)" fill="#003B89"/>
<ellipse rx="8" ry="8.00034" transform="matrix(0.707356 -0.706857 0.707415 0.706799 68.4094 209.255)" fill="#003B89"/>
<ellipse rx="8" ry="8.00034" transform="matrix(0.707357 -0.706857 0.707415 0.706799 96.6937 180.99)" fill="#003B89"/>
<ellipse rx="8" ry="8.00034" transform="matrix(0.707357 -0.706857 0.707415 0.706799 124.975 152.729)" fill="#003B89"/>
<ellipse rx="8" ry="8.00034" transform="matrix(0.707356 -0.706857 0.707415 0.706799 96.6951 237.516)" fill="#003B89"/>
<ellipse rx="8" ry="8.00034" transform="matrix(0.707357 -0.706857 0.707415 0.706799 124.979 209.252)" fill="#003B89"/>
<ellipse rx="8" ry="8.00034" transform="matrix(0.707357 -0.706857 0.707415 0.706799 153.261 180.99)" fill="#003B89"/>
<ellipse rx="8" ry="8.00034" transform="matrix(0.707356 -0.706857 0.707415 0.706799 124.981 265.777)" fill="#003B89"/>
<ellipse rx="8" ry="8.00034" transform="matrix(0.707357 -0.706857 0.707415 0.706799 153.265 237.513)" fill="#003B89"/>
<ellipse rx="8" ry="8.00034" transform="matrix(0.707357 -0.706857 0.707415 0.706799 181.547 209.251)" fill="#003B89"/>
<ellipse rx="8" ry="8.00034" transform="matrix(0.707356 -0.706857 0.707415 0.706799 153.267 294.038)" fill="#003B89"/>
<ellipse rx="8" ry="8.00034" transform="matrix(0.707357 -0.706857 0.707415 0.706799 181.551 265.774)" fill="#003B89"/>
<ellipse rx="8" ry="8.00034" transform="matrix(0.707357 -0.706857 0.707415 0.706799 209.833 237.512)" fill="#003B89"/>
<ellipse rx="8" ry="8.00034" transform="matrix(0.707357 -0.706857 0.707414 0.706799 96.6867 67.9434)" fill="#003B89"/>
<ellipse rx="8" ry="8.00034" transform="matrix(0.707357 -0.706857 0.707414 0.706799 124.97 39.68)" fill="#003B89"/>
<ellipse rx="8" ry="8.00034" transform="matrix(0.707357 -0.706857 0.707414 0.706799 153.253 11.4175)" fill="#003B89"/>
<ellipse rx="8" ry="8.00034" transform="matrix(0.707357 -0.706857 0.707415 0.706799 124.973 96.2053)" fill="#003B89"/>
<ellipse rx="8" ry="8.00034" transform="matrix(0.707357 -0.706857 0.707415 0.706799 153.257 67.9419)" fill="#003B89"/>
<ellipse rx="8" ry="8.00034" transform="matrix(0.707357 -0.706857 0.707415 0.706799 181.539 39.6792)" fill="#003B89"/>
<ellipse rx="8" ry="8.00034" transform="matrix(0.707357 -0.706857 0.707415 0.706799 153.258 124.466)" fill="#003B89"/>
<ellipse rx="8" ry="8.00034" transform="matrix(0.707357 -0.706857 0.707415 0.706799 181.542 96.2024)" fill="#003B89"/>
<ellipse rx="8" ry="8.00034" transform="matrix(0.707357 -0.706857 0.707415 0.706799 209.824 67.9397)" fill="#003B89"/>
<ellipse rx="8" ry="8.00034" transform="matrix(0.707357 -0.706857 0.707414 0.706799 96.6867 67.9434)" fill="#003B89"/>
<ellipse rx="8" ry="8.00034" transform="matrix(0.707357 -0.706857 0.707414 0.706799 124.97 39.68)" fill="#003B89"/>
<ellipse rx="8" ry="8.00034" transform="matrix(0.707357 -0.706857 0.707414 0.706799 153.253 11.4175)" fill="#003B89"/>
<ellipse rx="8" ry="8.00034" transform="matrix(0.707357 -0.706857 0.707415 0.706799 124.973 96.2053)" fill="#003B89"/>
<ellipse rx="8" ry="8.00034" transform="matrix(0.707357 -0.706857 0.707415 0.706799 153.257 67.9419)" fill="#003B89"/>
<ellipse rx="8" ry="8.00034" transform="matrix(0.707357 -0.706857 0.707415 0.706799 181.539 39.6792)" fill="#003B89"/>
<ellipse rx="8" ry="8.00034" transform="matrix(0.707357 -0.706857 0.707415 0.706799 153.258 124.466)" fill="#003B89"/>
<ellipse rx="8" ry="8.00034" transform="matrix(0.707357 -0.706857 0.707415 0.706799 181.542 96.2024)" fill="#003B89"/>
<ellipse rx="8" ry="8.00034" transform="matrix(0.707357 -0.706857 0.707415 0.706799 209.824 67.9397)" fill="#003B89"/>
<ellipse rx="8" ry="8.00034" transform="matrix(0.707357 -0.706857 0.707415 0.706799 181.544 152.727)" fill="#003B89"/>
<ellipse rx="8" ry="8.00034" transform="matrix(0.707357 -0.706857 0.707415 0.706799 209.827 124.463)" fill="#003B89"/>
<ellipse rx="8" ry="8.00034" transform="matrix(0.707357 -0.706857 0.707415 0.706799 209.83 180.988)" fill="#003B89"/>
</svg>
