<svg width="114" height="114" viewBox="0 0 114 114" fill="none" xmlns="http://www.w3.org/2000/svg">
<ellipse rx="2.96288" ry="2.96301" transform="matrix(0.707107 -0.707107 0.707165 0.707049 4.64027 56.5684)" fill="#104489"/>
<ellipse rx="2.96288" ry="2.96301" transform="matrix(0.707357 -0.706857 0.707414 0.706799 15.1173 46.1002)" fill="#104489"/>
<ellipse rx="2.96288" ry="2.96301" transform="matrix(0.707357 -0.706857 0.707414 0.706799 25.5926 35.6324)" fill="#104489"/>
<ellipse rx="2.96288" ry="2.96301" transform="matrix(0.707356 -0.706857 0.707415 0.706799 15.1184 67.036)" fill="#104489"/>
<ellipse rx="2.96288" ry="2.96301" transform="matrix(0.707357 -0.706857 0.707415 0.706799 25.594 56.5678)" fill="#104489"/>
<ellipse rx="2.96288" ry="2.96301" transform="matrix(0.707357 -0.706857 0.707415 0.706799 36.0693 46.1)" fill="#104489"/>
<ellipse rx="2.96288" ry="2.96301" transform="matrix(0.707356 -0.706857 0.707415 0.706799 25.5946 77.503)" fill="#104489"/>
<ellipse rx="2.96288" ry="2.96301" transform="matrix(0.707357 -0.706857 0.707415 0.706799 36.0705 67.0345)" fill="#104489"/>
<ellipse rx="2.96288" ry="2.96301" transform="matrix(0.707357 -0.706857 0.707415 0.706799 46.5454 56.567)" fill="#104489"/>
<ellipse rx="2.96288" ry="2.96301" transform="matrix(0.707107 -0.707107 0.707165 0.707049 4.64027 56.5684)" fill="#104489"/>
<ellipse rx="2.96288" ry="2.96301" transform="matrix(0.707357 -0.706857 0.707414 0.706799 15.1173 46.1002)" fill="#104489"/>
<ellipse rx="2.96288" ry="2.96301" transform="matrix(0.707357 -0.706857 0.707414 0.706799 25.5926 35.6324)" fill="#104489"/>
<ellipse rx="2.96288" ry="2.96301" transform="matrix(0.707356 -0.706857 0.707415 0.706799 15.1184 67.036)" fill="#104489"/>
<ellipse rx="2.96288" ry="2.96301" transform="matrix(0.707357 -0.706857 0.707415 0.706799 25.594 56.5678)" fill="#104489"/>
<ellipse rx="2.96288" ry="2.96301" transform="matrix(0.707357 -0.706857 0.707415 0.706799 36.0693 46.1)" fill="#104489"/>
<ellipse rx="2.96288" ry="2.96301" transform="matrix(0.707356 -0.706857 0.707415 0.706799 25.5946 77.503)" fill="#104489"/>
<ellipse rx="2.96288" ry="2.96301" transform="matrix(0.707357 -0.706857 0.707415 0.706799 36.0705 67.0345)" fill="#104489"/>
<ellipse rx="2.96288" ry="2.96301" transform="matrix(0.707357 -0.706857 0.707415 0.706799 46.5454 56.567)" fill="#104489"/>
<ellipse rx="2.96288" ry="2.96301" transform="matrix(0.707356 -0.706857 0.707415 0.706799 36.071 87.9703)" fill="#104489"/>
<ellipse rx="2.96288" ry="2.96301" transform="matrix(0.707357 -0.706857 0.707415 0.706799 46.5466 77.5021)" fill="#104489"/>
<ellipse rx="2.96288" ry="2.96301" transform="matrix(0.707357 -0.706857 0.707415 0.706799 57.0218 67.0343)" fill="#104489"/>
<ellipse rx="2.96288" ry="2.96301" transform="matrix(0.707356 -0.706857 0.707415 0.706799 46.5475 98.4376)" fill="#104489"/>
<ellipse rx="2.96288" ry="2.96301" transform="matrix(0.707357 -0.706857 0.707415 0.706799 57.0234 87.9692)" fill="#104489"/>
<ellipse rx="2.96288" ry="2.96301" transform="matrix(0.707357 -0.706857 0.707415 0.706799 67.4983 77.5016)" fill="#104489"/>
<ellipse rx="2.96288" ry="2.96301" transform="matrix(0.707356 -0.706857 0.707415 0.706799 57.0239 108.905)" fill="#104489"/>
<ellipse rx="2.96288" ry="2.96301" transform="matrix(0.707357 -0.706857 0.707415 0.706799 67.4998 98.4365)" fill="#104489"/>
<ellipse rx="2.96288" ry="2.96301" transform="matrix(0.707357 -0.706857 0.707415 0.706799 77.9747 87.969)" fill="#104489"/>
<ellipse rx="2.96288" ry="2.96301" transform="matrix(0.707357 -0.706857 0.707414 0.706799 36.0679 25.1644)" fill="#104489"/>
<ellipse rx="2.96288" ry="2.96301" transform="matrix(0.707357 -0.706857 0.707414 0.706799 46.5435 14.6963)" fill="#104489"/>
<ellipse rx="2.96288" ry="2.96301" transform="matrix(0.707357 -0.706857 0.707414 0.706799 57.0187 4.22849)" fill="#104489"/>
<ellipse rx="2.96288" ry="2.96301" transform="matrix(0.707357 -0.706857 0.707415 0.706799 46.5447 35.6319)" fill="#104489"/>
<ellipse rx="2.96288" ry="2.96301" transform="matrix(0.707357 -0.706857 0.707415 0.706799 57.0202 25.1639)" fill="#104489"/>
<ellipse rx="2.96288" ry="2.96301" transform="matrix(0.707357 -0.706857 0.707415 0.706799 67.4954 14.696)" fill="#104489"/>
<ellipse rx="2.96288" ry="2.96301" transform="matrix(0.707357 -0.706857 0.707415 0.706799 57.0208 46.099)" fill="#104489"/>
<ellipse rx="2.96288" ry="2.96301" transform="matrix(0.707357 -0.706857 0.707415 0.706799 67.4963 35.6309)" fill="#104489"/>
<ellipse rx="2.96288" ry="2.96301" transform="matrix(0.707357 -0.706857 0.707415 0.706799 77.9716 25.1631)" fill="#104489"/>
<ellipse rx="2.96288" ry="2.96301" transform="matrix(0.707357 -0.706857 0.707414 0.706799 36.0679 25.1644)" fill="#104489"/>
<ellipse rx="2.96288" ry="2.96301" transform="matrix(0.707357 -0.706857 0.707414 0.706799 46.5435 14.6963)" fill="#104489"/>
<ellipse rx="2.96288" ry="2.96301" transform="matrix(0.707357 -0.706857 0.707414 0.706799 57.0187 4.22849)" fill="#104489"/>
<ellipse rx="2.96288" ry="2.96301" transform="matrix(0.707357 -0.706857 0.707415 0.706799 46.5447 35.6319)" fill="#104489"/>
<ellipse rx="2.96288" ry="2.96301" transform="matrix(0.707357 -0.706857 0.707415 0.706799 57.0202 25.1639)" fill="#104489"/>
<ellipse rx="2.96288" ry="2.96301" transform="matrix(0.707357 -0.706857 0.707415 0.706799 67.4954 14.696)" fill="#104489"/>
<ellipse rx="2.96288" ry="2.96301" transform="matrix(0.707357 -0.706857 0.707415 0.706799 57.0208 46.099)" fill="#104489"/>
<ellipse rx="2.96288" ry="2.96301" transform="matrix(0.707357 -0.706857 0.707415 0.706799 67.4963 35.6309)" fill="#104489"/>
<ellipse rx="2.96288" ry="2.96301" transform="matrix(0.707357 -0.706857 0.707415 0.706799 77.9716 25.1631)" fill="#104489"/>
<ellipse rx="2.96288" ry="2.96301" transform="matrix(0.707357 -0.706857 0.707415 0.706799 67.4972 56.5664)" fill="#104489"/>
<ellipse rx="2.96288" ry="2.96301" transform="matrix(0.707357 -0.706857 0.707415 0.706799 77.9727 46.0982)" fill="#104489"/>
<ellipse rx="2.96288" ry="2.96301" transform="matrix(0.707357 -0.706857 0.707415 0.706799 88.448 35.6303)" fill="#104489"/>
<ellipse rx="2.96288" ry="2.96301" transform="matrix(0.707357 -0.706857 0.707415 0.706799 77.9736 67.0337)" fill="#104489"/>
<ellipse rx="2.96288" ry="2.96301" transform="matrix(0.707357 -0.706857 0.707415 0.706799 88.4492 56.5655)" fill="#104489"/>
<ellipse rx="2.96288" ry="2.96301" transform="matrix(0.707357 -0.706857 0.707415 0.706799 98.9245 46.0976)" fill="#104489"/>
<ellipse rx="2.96288" ry="2.96301" transform="matrix(0.707357 -0.706857 0.707415 0.706799 88.45 77.501)" fill="#104489"/>
<ellipse rx="2.96288" ry="2.96301" transform="matrix(0.707357 -0.706857 0.707415 0.706799 98.9256 67.0328)" fill="#104489"/>
<ellipse rx="2.96288" ry="2.96301" transform="matrix(0.707357 -0.706857 0.707415 0.706799 109.401 56.565)" fill="#104489"/>
</svg>
