<svg width="134" height="171" viewBox="0 0 134 171" fill="none" xmlns="http://www.w3.org/2000/svg">
<ellipse rx="4.44424" ry="4.44443" transform="matrix(0.707107 -0.707107 0.707165 0.707049 6.70114 85.4772)" fill="#0068F4"/>
<ellipse rx="4.44424" ry="4.44443" transform="matrix(0.707357 -0.706857 0.707414 0.706799 22.4164 69.7753)" fill="#0068F4"/>
<ellipse rx="4.44424" ry="4.44443" transform="matrix(0.707357 -0.706857 0.707414 0.706799 38.1289 54.074)" fill="#0068F4"/>
<ellipse rx="4.44424" ry="4.44443" transform="matrix(0.707356 -0.706857 0.707415 0.706799 22.4181 101.178)" fill="#0068F4"/>
<ellipse rx="4.44424" ry="4.44443" transform="matrix(0.707357 -0.706857 0.707415 0.706799 38.1311 85.4763)" fill="#0068F4"/>
<ellipse rx="4.44424" ry="4.44443" transform="matrix(0.707357 -0.706857 0.707415 0.706799 53.8436 69.7749)" fill="#0068F4"/>
<ellipse rx="4.44424" ry="4.44443" transform="matrix(0.707356 -0.706857 0.707415 0.706799 38.1321 116.879)" fill="#0068F4"/>
<ellipse rx="4.44424" ry="4.44443" transform="matrix(0.707357 -0.706857 0.707415 0.706799 53.8455 101.176)" fill="#0068F4"/>
<ellipse rx="4.44424" ry="4.44443" transform="matrix(0.707357 -0.706857 0.707415 0.706799 69.5576 85.4752)" fill="#0068F4"/>
<ellipse rx="4.44424" ry="4.44443" transform="matrix(0.707107 -0.707107 0.707165 0.707049 6.70114 85.4772)" fill="#0068F4"/>
<ellipse rx="4.44424" ry="4.44443" transform="matrix(0.707357 -0.706857 0.707414 0.706799 22.4164 69.7753)" fill="#0068F4"/>
<ellipse rx="4.44424" ry="4.44443" transform="matrix(0.707357 -0.706857 0.707414 0.706799 38.1289 54.074)" fill="#0068F4"/>
<ellipse rx="4.44424" ry="4.44443" transform="matrix(0.707356 -0.706857 0.707415 0.706799 22.4181 101.178)" fill="#0068F4"/>
<ellipse rx="4.44424" ry="4.44443" transform="matrix(0.707357 -0.706857 0.707415 0.706799 38.1311 85.4763)" fill="#0068F4"/>
<ellipse rx="4.44424" ry="4.44443" transform="matrix(0.707357 -0.706857 0.707415 0.706799 53.8436 69.7749)" fill="#0068F4"/>
<ellipse rx="4.44424" ry="4.44443" transform="matrix(0.707356 -0.706857 0.707415 0.706799 38.1321 116.879)" fill="#0068F4"/>
<ellipse rx="4.44424" ry="4.44443" transform="matrix(0.707357 -0.706857 0.707415 0.706799 53.8455 101.176)" fill="#0068F4"/>
<ellipse rx="4.44424" ry="4.44443" transform="matrix(0.707357 -0.706857 0.707415 0.706799 69.5576 85.4752)" fill="#0068F4"/>
<ellipse rx="4.44424" ry="4.44443" transform="matrix(0.707356 -0.706857 0.707415 0.706799 53.8464 132.579)" fill="#0068F4"/>
<ellipse rx="4.44424" ry="4.44443" transform="matrix(0.707357 -0.706857 0.707415 0.706799 69.5594 116.877)" fill="#0068F4"/>
<ellipse rx="4.44424" ry="4.44443" transform="matrix(0.707357 -0.706857 0.707415 0.706799 85.272 101.176)" fill="#0068F4"/>
<ellipse rx="4.44424" ry="4.44443" transform="matrix(0.707356 -0.706857 0.707415 0.706799 69.5608 148.28)" fill="#0068F4"/>
<ellipse rx="4.44424" ry="4.44443" transform="matrix(0.707357 -0.706857 0.707415 0.706799 85.2742 132.577)" fill="#0068F4"/>
<ellipse rx="4.44424" ry="4.44443" transform="matrix(0.707357 -0.706857 0.707415 0.706799 100.986 116.876)" fill="#0068F4"/>
<ellipse rx="4.44424" ry="4.44443" transform="matrix(0.707356 -0.706857 0.707415 0.706799 85.2751 163.98)" fill="#0068F4"/>
<ellipse rx="4.44424" ry="4.44443" transform="matrix(0.707357 -0.706857 0.707415 0.706799 100.989 148.278)" fill="#0068F4"/>
<ellipse rx="4.44424" ry="4.44443" transform="matrix(0.707357 -0.706857 0.707415 0.706799 116.701 132.577)" fill="#0068F4"/>
<ellipse rx="4.44424" ry="4.44443" transform="matrix(0.707357 -0.706857 0.707414 0.706799 53.8417 38.3722)" fill="#0068F4"/>
<ellipse rx="4.44424" ry="4.44443" transform="matrix(0.707357 -0.706857 0.707414 0.706799 69.5547 22.6702)" fill="#0068F4"/>
<ellipse rx="4.44424" ry="4.44443" transform="matrix(0.707357 -0.706857 0.707414 0.706799 85.2672 6.96875)" fill="#0068F4"/>
<ellipse rx="4.44424" ry="4.44443" transform="matrix(0.707357 -0.706857 0.707415 0.706799 69.5565 54.0732)" fill="#0068F4"/>
<ellipse rx="4.44424" ry="4.44443" transform="matrix(0.707357 -0.706857 0.707415 0.706799 85.2694 38.3713)" fill="#0068F4"/>
<ellipse rx="4.44424" ry="4.44443" transform="matrix(0.707357 -0.706857 0.707415 0.706799 100.982 22.6698)" fill="#0068F4"/>
<ellipse rx="4.44424" ry="4.44443" transform="matrix(0.707357 -0.706857 0.707415 0.706799 85.2704 69.7734)" fill="#0068F4"/>
<ellipse rx="4.44424" ry="4.44443" transform="matrix(0.707357 -0.706857 0.707415 0.706799 100.983 54.0715)" fill="#0068F4"/>
<ellipse rx="4.44424" ry="4.44443" transform="matrix(0.707357 -0.706857 0.707415 0.706799 116.696 38.37)" fill="#0068F4"/>
<ellipse rx="4.44424" ry="4.44443" transform="matrix(0.707357 -0.706857 0.707414 0.706799 53.8417 38.3722)" fill="#0068F4"/>
<ellipse rx="4.44424" ry="4.44443" transform="matrix(0.707357 -0.706857 0.707414 0.706799 69.5547 22.6702)" fill="#0068F4"/>
<ellipse rx="4.44424" ry="4.44443" transform="matrix(0.707357 -0.706857 0.707414 0.706799 85.2672 6.96875)" fill="#0068F4"/>
<ellipse rx="4.44424" ry="4.44443" transform="matrix(0.707357 -0.706857 0.707415 0.706799 69.5565 54.0732)" fill="#0068F4"/>
<ellipse rx="4.44424" ry="4.44443" transform="matrix(0.707357 -0.706857 0.707415 0.706799 85.2694 38.3713)" fill="#0068F4"/>
<ellipse rx="4.44424" ry="4.44443" transform="matrix(0.707357 -0.706857 0.707415 0.706799 100.982 22.6698)" fill="#0068F4"/>
<ellipse rx="4.44424" ry="4.44443" transform="matrix(0.707357 -0.706857 0.707415 0.706799 85.2704 69.7734)" fill="#0068F4"/>
<ellipse rx="4.44424" ry="4.44443" transform="matrix(0.707357 -0.706857 0.707415 0.706799 100.983 54.0715)" fill="#0068F4"/>
<ellipse rx="4.44424" ry="4.44443" transform="matrix(0.707357 -0.706857 0.707415 0.706799 116.696 38.37)" fill="#0068F4"/>
<ellipse rx="4.44424" ry="4.44443" transform="matrix(0.707357 -0.706857 0.707415 0.706799 100.985 85.4741)" fill="#0068F4"/>
<ellipse rx="4.44424" ry="4.44443" transform="matrix(0.707357 -0.706857 0.707415 0.706799 116.698 69.7723)" fill="#0068F4"/>
<ellipse rx="4.44424" ry="4.44443" transform="matrix(0.707357 -0.706857 0.707415 0.706799 132.41 54.0707)" fill="#0068F4"/>
<ellipse rx="4.44424" ry="4.44443" transform="matrix(0.707357 -0.706857 0.707415 0.706799 116.699 101.175)" fill="#0068F4"/>
<ellipse rx="4.44424" ry="4.44443" transform="matrix(0.707357 -0.706857 0.707415 0.706799 132.412 85.473)" fill="#0068F4"/>
<ellipse rx="4.44424" ry="4.44443" transform="matrix(0.707357 -0.706857 0.707415 0.706799 132.413 116.875)" fill="#0068F4"/>
</svg>
