<svg width="202" height="202" viewBox="0 0 202 202" fill="none" xmlns="http://www.w3.org/2000/svg">
<ellipse rx="7.40721" ry="7.40752" transform="matrix(1 0 8.23128e-05 1 8.39964 8.40533)" fill="url(#paint0_linear)"/>
<ellipse rx="7.40721" ry="7.40752" transform="matrix(1 0.000353443 0.000435251 1 45.4259 8.42088)" fill="url(#paint1_linear)"/>
<ellipse rx="7.40721" ry="7.40752" transform="matrix(1 0.000353443 0.000435251 1 82.4483 8.43431)" fill="url(#paint2_linear)"/>
<ellipse rx="7.40721" ry="7.40752" transform="matrix(1 0.000352896 0.000435756 1 8.41837 45.4326)" fill="url(#paint3_linear)"/>
<ellipse rx="7.40721" ry="7.40752" transform="matrix(1 0.000353317 0.000435335 1 45.442 45.446)" fill="url(#paint4_linear)"/>
<ellipse rx="7.40721" ry="7.40752" transform="matrix(1 0.000353317 0.000435335 1 82.4645 45.4587)" fill="url(#paint5_linear)"/>
<ellipse rx="7.40721" ry="7.40752" transform="matrix(1 0.000352896 0.000435756 1 8.43436 82.4553)" fill="url(#paint6_linear)"/>
<ellipse rx="7.40721" ry="7.40752" transform="matrix(1 0.000353233 0.000435377 1 45.4591 82.4687)" fill="url(#paint7_linear)"/>
<ellipse rx="7.40721" ry="7.40752" transform="matrix(1 0.000353317 0.000435377 1 82.4806 82.4814)" fill="url(#paint8_linear)"/>
<ellipse rx="7.40721" ry="7.40752" transform="matrix(1 0 8.23128e-05 1 8.39964 8.40533)" fill="url(#paint9_linear)"/>
<ellipse rx="7.40721" ry="7.40752" transform="matrix(1 0.000353443 0.000435251 1 45.4259 8.42088)" fill="url(#paint10_linear)"/>
<ellipse rx="7.40721" ry="7.40752" transform="matrix(1 0.000353443 0.000435251 1 82.4483 8.43431)" fill="url(#paint11_linear)"/>
<ellipse rx="7.40721" ry="7.40752" transform="matrix(1 0.000352896 0.000435756 1 8.41837 45.4326)" fill="url(#paint12_linear)"/>
<ellipse rx="7.40721" ry="7.40752" transform="matrix(1 0.000353317 0.000435335 1 45.442 45.446)" fill="url(#paint13_linear)"/>
<ellipse rx="7.40721" ry="7.40752" transform="matrix(1 0.000353317 0.000435335 1 82.4645 45.4587)" fill="url(#paint14_linear)"/>
<ellipse rx="7.40721" ry="7.40752" transform="matrix(1 0.000352896 0.000435756 1 8.43436 82.4553)" fill="url(#paint15_linear)"/>
<ellipse rx="7.40721" ry="7.40752" transform="matrix(1 0.000353233 0.000435377 1 45.4591 82.4687)" fill="url(#paint16_linear)"/>
<ellipse rx="7.40721" ry="7.40752" transform="matrix(1 0.000353317 0.000435377 1 82.4806 82.4814)" fill="url(#paint17_linear)"/>
<ellipse rx="7.40721" ry="7.40752" transform="matrix(1 0.000352896 0.000435756 1 8.45072 119.478)" fill="url(#paint18_linear)"/>
<ellipse rx="7.40721" ry="7.40752" transform="matrix(1 0.000353317 0.000435377 1 45.4744 119.492)" fill="url(#paint19_linear)"/>
<ellipse rx="7.40721" ry="7.40752" transform="matrix(1 0.000353317 0.000435377 1 82.4967 119.505)" fill="url(#paint20_linear)"/>
<ellipse rx="7.40721" ry="7.40752" transform="matrix(1 0.000352896 0.000435756 1 8.46695 156.502)" fill="url(#paint21_linear)"/>
<ellipse rx="7.40721" ry="7.40752" transform="matrix(1 0.000353317 0.000435377 1 45.4915 156.516)" fill="url(#paint22_linear)"/>
<ellipse rx="7.40721" ry="7.40752" transform="matrix(1 0.000353317 0.000435377 1 82.513 156.529)" fill="url(#paint23_linear)"/>
<ellipse rx="7.40721" ry="7.40752" transform="matrix(1 0.000352896 0.000435756 1 8.48307 193.526)" fill="url(#paint24_linear)"/>
<ellipse rx="7.40721" ry="7.40752" transform="matrix(1 0.000353317 0.000435377 1 45.5076 193.539)" fill="url(#paint25_linear)"/>
<ellipse rx="7.40721" ry="7.40752" transform="matrix(1 0.000353317 0.000435377 1 82.5291 193.553)" fill="url(#paint26_linear)"/>
<ellipse rx="7.40721" ry="7.40752" transform="matrix(1 0.000353443 0.000435251 1 119.471 8.44701)" fill="url(#paint27_linear)"/>
<ellipse rx="7.40721" ry="7.40752" transform="matrix(1 0.000353443 0.000435251 1 156.495 8.46043)" fill="url(#paint28_linear)"/>
<ellipse rx="7.40721" ry="7.40752" transform="matrix(1 0.000353443 0.000435251 1 193.517 8.47337)" fill="url(#paint29_linear)"/>
<ellipse rx="7.40721" ry="7.40752" transform="matrix(1 0.000353317 0.000435335 1 119.488 45.4722)" fill="url(#paint30_linear)"/>
<ellipse rx="7.40721" ry="7.40752" transform="matrix(1 0.000353317 0.000435419 1 156.511 45.4851)" fill="url(#paint31_linear)"/>
<ellipse rx="7.40721" ry="7.40752" transform="matrix(1 0.000353317 0.000435419 1 193.534 45.4978)" fill="url(#paint32_linear)"/>
<ellipse rx="7.40721" ry="7.40752" transform="matrix(1 0.000353317 0.000435377 1 119.504 82.4944)" fill="url(#paint33_linear)"/>
<ellipse rx="7.40721" ry="7.40752" transform="matrix(1 0.000353317 0.000435419 1 156.527 82.5078)" fill="url(#paint34_linear)"/>
<ellipse rx="7.40721" ry="7.40752" transform="matrix(1 0.000353317 0.000435419 1 193.55 82.5205)" fill="url(#paint35_linear)"/>
<ellipse rx="7.40721" ry="7.40752" transform="matrix(1 0.000353443 0.000435251 1 119.471 8.44701)" fill="url(#paint36_linear)"/>
<ellipse rx="7.40721" ry="7.40752" transform="matrix(1 0.000353443 0.000435251 1 156.495 8.46043)" fill="url(#paint37_linear)"/>
<ellipse rx="7.40721" ry="7.40752" transform="matrix(1 0.000353443 0.000435251 1 193.517 8.47337)" fill="url(#paint38_linear)"/>
<ellipse rx="7.40721" ry="7.40752" transform="matrix(1 0.000353317 0.000435335 1 119.488 45.4722)" fill="url(#paint39_linear)"/>
<ellipse rx="7.40721" ry="7.40752" transform="matrix(1 0.000353317 0.000435419 1 156.511 45.4851)" fill="url(#paint40_linear)"/>
<ellipse rx="7.40721" ry="7.40752" transform="matrix(1 0.000353317 0.000435419 1 193.534 45.4978)" fill="url(#paint41_linear)"/>
<ellipse rx="7.40721" ry="7.40752" transform="matrix(1 0.000353317 0.000435377 1 119.504 82.4944)" fill="url(#paint42_linear)"/>
<ellipse rx="7.40721" ry="7.40752" transform="matrix(1 0.000353317 0.000435419 1 156.527 82.5078)" fill="url(#paint43_linear)"/>
<ellipse rx="7.40721" ry="7.40752" transform="matrix(1 0.000353317 0.000435419 1 193.55 82.5205)" fill="url(#paint44_linear)"/>
<ellipse rx="7.40721" ry="7.40752" transform="matrix(1 0.000353317 0.000435377 1 119.52 119.518)" fill="url(#paint45_linear)"/>
<ellipse rx="7.40721" ry="7.40752" transform="matrix(1 0.000353317 0.000435377 1 156.543 119.531)" fill="url(#paint46_linear)"/>
<ellipse rx="7.40721" ry="7.40752" transform="matrix(1 0.000353317 0.000435377 1 193.566 119.544)" fill="url(#paint47_linear)"/>
<ellipse rx="7.40721" ry="7.40752" transform="matrix(1 0.000353317 0.000435377 1 119.536 156.541)" fill="url(#paint48_linear)"/>
<ellipse rx="7.40721" ry="7.40752" transform="matrix(1 0.000353317 0.000435377 1 156.559 156.555)" fill="url(#paint49_linear)"/>
<ellipse rx="7.40721" ry="7.40752" transform="matrix(1 0.000353317 0.000435377 1 193.582 156.568)" fill="url(#paint50_linear)"/>
<ellipse rx="7.40721" ry="7.40752" transform="matrix(1 0.000353317 0.000435377 1 119.552 193.565)" fill="url(#paint51_linear)"/>
<ellipse rx="7.40721" ry="7.40752" transform="matrix(1 0.000353317 0.000435377 1 156.575 193.578)" fill="url(#paint52_linear)"/>
<ellipse rx="7.40721" ry="7.40752" transform="matrix(1 0.000353317 0.000435377 1 193.598 193.592)" fill="url(#paint53_linear)"/>
<defs>
<linearGradient id="paint0_linear" x1="7.40721" y1="0" x2="7.40721" y2="14.815" gradientUnits="userSpaceOnUse">
<stop stop-color="#2A85FF"/>
<stop offset="1" stop-color="#0052BF"/>
</linearGradient>
<linearGradient id="paint1_linear" x1="7.40721" y1="0" x2="7.40721" y2="14.815" gradientUnits="userSpaceOnUse">
<stop stop-color="#2A85FF"/>
<stop offset="1" stop-color="#0052BF"/>
</linearGradient>
<linearGradient id="paint2_linear" x1="7.40721" y1="0" x2="7.40721" y2="14.815" gradientUnits="userSpaceOnUse">
<stop stop-color="#2A85FF"/>
<stop offset="1" stop-color="#0052BF"/>
</linearGradient>
<linearGradient id="paint3_linear" x1="7.40721" y1="0" x2="7.40721" y2="14.815" gradientUnits="userSpaceOnUse">
<stop stop-color="#2A85FF"/>
<stop offset="1" stop-color="#0052BF"/>
</linearGradient>
<linearGradient id="paint4_linear" x1="7.40721" y1="0" x2="7.40721" y2="14.815" gradientUnits="userSpaceOnUse">
<stop stop-color="#2A85FF"/>
<stop offset="1" stop-color="#0052BF"/>
</linearGradient>
<linearGradient id="paint5_linear" x1="7.40721" y1="0" x2="7.40721" y2="14.815" gradientUnits="userSpaceOnUse">
<stop stop-color="#2A85FF"/>
<stop offset="1" stop-color="#0052BF"/>
</linearGradient>
<linearGradient id="paint6_linear" x1="7.40721" y1="0" x2="7.40721" y2="14.815" gradientUnits="userSpaceOnUse">
<stop stop-color="#2A85FF"/>
<stop offset="1" stop-color="#0052BF"/>
</linearGradient>
<linearGradient id="paint7_linear" x1="7.40721" y1="0" x2="7.40721" y2="14.815" gradientUnits="userSpaceOnUse">
<stop stop-color="#2A85FF"/>
<stop offset="1" stop-color="#0052BF"/>
</linearGradient>
<linearGradient id="paint8_linear" x1="7.40721" y1="0" x2="7.40721" y2="14.815" gradientUnits="userSpaceOnUse">
<stop stop-color="#2A85FF"/>
<stop offset="1" stop-color="#0052BF"/>
</linearGradient>
<linearGradient id="paint9_linear" x1="7.40721" y1="0" x2="7.40721" y2="14.815" gradientUnits="userSpaceOnUse">
<stop stop-color="#2A85FF"/>
<stop offset="1" stop-color="#0052BF"/>
</linearGradient>
<linearGradient id="paint10_linear" x1="7.40721" y1="0" x2="7.40721" y2="14.815" gradientUnits="userSpaceOnUse">
<stop stop-color="#2A85FF"/>
<stop offset="1" stop-color="#0052BF"/>
</linearGradient>
<linearGradient id="paint11_linear" x1="7.40721" y1="0" x2="7.40721" y2="14.815" gradientUnits="userSpaceOnUse">
<stop stop-color="#2A85FF"/>
<stop offset="1" stop-color="#0052BF"/>
</linearGradient>
<linearGradient id="paint12_linear" x1="7.40721" y1="0" x2="7.40721" y2="14.815" gradientUnits="userSpaceOnUse">
<stop stop-color="#2A85FF"/>
<stop offset="1" stop-color="#0052BF"/>
</linearGradient>
<linearGradient id="paint13_linear" x1="7.40721" y1="0" x2="7.40721" y2="14.815" gradientUnits="userSpaceOnUse">
<stop stop-color="#2A85FF"/>
<stop offset="1" stop-color="#0052BF"/>
</linearGradient>
<linearGradient id="paint14_linear" x1="7.40721" y1="0" x2="7.40721" y2="14.815" gradientUnits="userSpaceOnUse">
<stop stop-color="#2A85FF"/>
<stop offset="1" stop-color="#0052BF"/>
</linearGradient>
<linearGradient id="paint15_linear" x1="7.40721" y1="0" x2="7.40721" y2="14.815" gradientUnits="userSpaceOnUse">
<stop stop-color="#2A85FF"/>
<stop offset="1" stop-color="#0052BF"/>
</linearGradient>
<linearGradient id="paint16_linear" x1="7.40721" y1="0" x2="7.40721" y2="14.815" gradientUnits="userSpaceOnUse">
<stop stop-color="#2A85FF"/>
<stop offset="1" stop-color="#0052BF"/>
</linearGradient>
<linearGradient id="paint17_linear" x1="7.40721" y1="0" x2="7.40721" y2="14.815" gradientUnits="userSpaceOnUse">
<stop stop-color="#2A85FF"/>
<stop offset="1" stop-color="#0052BF"/>
</linearGradient>
<linearGradient id="paint18_linear" x1="7.40721" y1="0" x2="7.40721" y2="14.815" gradientUnits="userSpaceOnUse">
<stop stop-color="#2A85FF"/>
<stop offset="1" stop-color="#0052BF"/>
</linearGradient>
<linearGradient id="paint19_linear" x1="7.40721" y1="0" x2="7.40721" y2="14.815" gradientUnits="userSpaceOnUse">
<stop stop-color="#2A85FF"/>
<stop offset="1" stop-color="#0052BF"/>
</linearGradient>
<linearGradient id="paint20_linear" x1="7.40721" y1="0" x2="7.40721" y2="14.815" gradientUnits="userSpaceOnUse">
<stop stop-color="#2A85FF"/>
<stop offset="1" stop-color="#0052BF"/>
</linearGradient>
<linearGradient id="paint21_linear" x1="7.40721" y1="0" x2="7.40721" y2="14.815" gradientUnits="userSpaceOnUse">
<stop stop-color="#2A85FF"/>
<stop offset="1" stop-color="#0052BF"/>
</linearGradient>
<linearGradient id="paint22_linear" x1="7.40721" y1="0" x2="7.40721" y2="14.815" gradientUnits="userSpaceOnUse">
<stop stop-color="#2A85FF"/>
<stop offset="1" stop-color="#0052BF"/>
</linearGradient>
<linearGradient id="paint23_linear" x1="7.40721" y1="0" x2="7.40721" y2="14.815" gradientUnits="userSpaceOnUse">
<stop stop-color="#2A85FF"/>
<stop offset="1" stop-color="#0052BF"/>
</linearGradient>
<linearGradient id="paint24_linear" x1="7.40721" y1="0" x2="7.40721" y2="14.815" gradientUnits="userSpaceOnUse">
<stop stop-color="#2A85FF"/>
<stop offset="1" stop-color="#0052BF"/>
</linearGradient>
<linearGradient id="paint25_linear" x1="7.40721" y1="0" x2="7.40721" y2="14.815" gradientUnits="userSpaceOnUse">
<stop stop-color="#2A85FF"/>
<stop offset="1" stop-color="#0052BF"/>
</linearGradient>
<linearGradient id="paint26_linear" x1="7.40721" y1="0" x2="7.40721" y2="14.815" gradientUnits="userSpaceOnUse">
<stop stop-color="#2A85FF"/>
<stop offset="1" stop-color="#0052BF"/>
</linearGradient>
<linearGradient id="paint27_linear" x1="7.40721" y1="0" x2="7.40721" y2="14.815" gradientUnits="userSpaceOnUse">
<stop stop-color="#2A85FF"/>
<stop offset="1" stop-color="#0052BF"/>
</linearGradient>
<linearGradient id="paint28_linear" x1="7.40721" y1="0" x2="7.40721" y2="14.815" gradientUnits="userSpaceOnUse">
<stop stop-color="#2A85FF"/>
<stop offset="1" stop-color="#0052BF"/>
</linearGradient>
<linearGradient id="paint29_linear" x1="7.40721" y1="0" x2="7.40721" y2="14.815" gradientUnits="userSpaceOnUse">
<stop stop-color="#2A85FF"/>
<stop offset="1" stop-color="#0052BF"/>
</linearGradient>
<linearGradient id="paint30_linear" x1="7.40721" y1="0" x2="7.40721" y2="14.815" gradientUnits="userSpaceOnUse">
<stop stop-color="#2A85FF"/>
<stop offset="1" stop-color="#0052BF"/>
</linearGradient>
<linearGradient id="paint31_linear" x1="7.40721" y1="0" x2="7.40721" y2="14.815" gradientUnits="userSpaceOnUse">
<stop stop-color="#2A85FF"/>
<stop offset="1" stop-color="#0052BF"/>
</linearGradient>
<linearGradient id="paint32_linear" x1="7.40721" y1="0" x2="7.40721" y2="14.815" gradientUnits="userSpaceOnUse">
<stop stop-color="#2A85FF"/>
<stop offset="1" stop-color="#0052BF"/>
</linearGradient>
<linearGradient id="paint33_linear" x1="7.40721" y1="0" x2="7.40721" y2="14.815" gradientUnits="userSpaceOnUse">
<stop stop-color="#2A85FF"/>
<stop offset="1" stop-color="#0052BF"/>
</linearGradient>
<linearGradient id="paint34_linear" x1="7.40721" y1="0" x2="7.40721" y2="14.815" gradientUnits="userSpaceOnUse">
<stop stop-color="#2A85FF"/>
<stop offset="1" stop-color="#0052BF"/>
</linearGradient>
<linearGradient id="paint35_linear" x1="7.40721" y1="0" x2="7.40721" y2="14.815" gradientUnits="userSpaceOnUse">
<stop stop-color="#2A85FF"/>
<stop offset="1" stop-color="#0052BF"/>
</linearGradient>
<linearGradient id="paint36_linear" x1="7.40721" y1="0" x2="7.40721" y2="14.815" gradientUnits="userSpaceOnUse">
<stop stop-color="#2A85FF"/>
<stop offset="1" stop-color="#0052BF"/>
</linearGradient>
<linearGradient id="paint37_linear" x1="7.40721" y1="0" x2="7.40721" y2="14.815" gradientUnits="userSpaceOnUse">
<stop stop-color="#2A85FF"/>
<stop offset="1" stop-color="#0052BF"/>
</linearGradient>
<linearGradient id="paint38_linear" x1="7.40721" y1="0" x2="7.40721" y2="14.815" gradientUnits="userSpaceOnUse">
<stop stop-color="#2A85FF"/>
<stop offset="1" stop-color="#0052BF"/>
</linearGradient>
<linearGradient id="paint39_linear" x1="7.40721" y1="0" x2="7.40721" y2="14.815" gradientUnits="userSpaceOnUse">
<stop stop-color="#2A85FF"/>
<stop offset="1" stop-color="#0052BF"/>
</linearGradient>
<linearGradient id="paint40_linear" x1="7.40721" y1="0" x2="7.40721" y2="14.815" gradientUnits="userSpaceOnUse">
<stop stop-color="#2A85FF"/>
<stop offset="1" stop-color="#0052BF"/>
</linearGradient>
<linearGradient id="paint41_linear" x1="7.40721" y1="0" x2="7.40721" y2="14.815" gradientUnits="userSpaceOnUse">
<stop stop-color="#2A85FF"/>
<stop offset="1" stop-color="#0052BF"/>
</linearGradient>
<linearGradient id="paint42_linear" x1="7.40721" y1="0" x2="7.40721" y2="14.815" gradientUnits="userSpaceOnUse">
<stop stop-color="#2A85FF"/>
<stop offset="1" stop-color="#0052BF"/>
</linearGradient>
<linearGradient id="paint43_linear" x1="7.40721" y1="0" x2="7.40721" y2="14.815" gradientUnits="userSpaceOnUse">
<stop stop-color="#2A85FF"/>
<stop offset="1" stop-color="#0052BF"/>
</linearGradient>
<linearGradient id="paint44_linear" x1="7.40721" y1="0" x2="7.40721" y2="14.815" gradientUnits="userSpaceOnUse">
<stop stop-color="#2A85FF"/>
<stop offset="1" stop-color="#0052BF"/>
</linearGradient>
<linearGradient id="paint45_linear" x1="7.40721" y1="0" x2="7.40721" y2="14.815" gradientUnits="userSpaceOnUse">
<stop stop-color="#2A85FF"/>
<stop offset="1" stop-color="#0052BF"/>
</linearGradient>
<linearGradient id="paint46_linear" x1="7.40721" y1="0" x2="7.40721" y2="14.815" gradientUnits="userSpaceOnUse">
<stop stop-color="#2A85FF"/>
<stop offset="1" stop-color="#0052BF"/>
</linearGradient>
<linearGradient id="paint47_linear" x1="7.40721" y1="0" x2="7.40721" y2="14.815" gradientUnits="userSpaceOnUse">
<stop stop-color="#2A85FF"/>
<stop offset="1" stop-color="#0052BF"/>
</linearGradient>
<linearGradient id="paint48_linear" x1="7.40721" y1="0" x2="7.40721" y2="14.815" gradientUnits="userSpaceOnUse">
<stop stop-color="#2A85FF"/>
<stop offset="1" stop-color="#0052BF"/>
</linearGradient>
<linearGradient id="paint49_linear" x1="7.40721" y1="0" x2="7.40721" y2="14.815" gradientUnits="userSpaceOnUse">
<stop stop-color="#2A85FF"/>
<stop offset="1" stop-color="#0052BF"/>
</linearGradient>
<linearGradient id="paint50_linear" x1="7.40721" y1="0" x2="7.40721" y2="14.815" gradientUnits="userSpaceOnUse">
<stop stop-color="#2A85FF"/>
<stop offset="1" stop-color="#0052BF"/>
</linearGradient>
<linearGradient id="paint51_linear" x1="7.40721" y1="0" x2="7.40721" y2="14.815" gradientUnits="userSpaceOnUse">
<stop stop-color="#2A85FF"/>
<stop offset="1" stop-color="#0052BF"/>
</linearGradient>
<linearGradient id="paint52_linear" x1="7.40721" y1="0" x2="7.40721" y2="14.815" gradientUnits="userSpaceOnUse">
<stop stop-color="#2A85FF"/>
<stop offset="1" stop-color="#0052BF"/>
</linearGradient>
<linearGradient id="paint53_linear" x1="7.40721" y1="0" x2="7.40721" y2="14.815" gradientUnits="userSpaceOnUse">
<stop stop-color="#2A85FF"/>
<stop offset="1" stop-color="#0052BF"/>
</linearGradient>
</defs>
</svg>
