<svg width="65" height="66" viewBox="0 0 65 66" fill="none" xmlns="http://www.w3.org/2000/svg">
<ellipse rx="1.77781" ry="1.77788" transform="matrix(0.898796 0.438366 -0.438302 0.898828 22.4138 3.3644)" fill="#A53BF7"/>
<ellipse rx="1.77781" ry="1.77788" transform="matrix(0.898636 0.438695 -0.437973 0.898988 30.3991 7.26334)" fill="#A53BF7"/>
<ellipse rx="1.77781" ry="1.77788" transform="matrix(0.89864 0.438686 -0.437982 0.898983 38.3838 11.1611)" fill="#A53BF7"/>
<ellipse rx="1.77781" ry="1.77788" transform="matrix(0.898641 0.438686 -0.437982 0.898984 18.5223 11.3535)" fill="#A53BF7"/>
<ellipse rx="1.77781" ry="1.77788" transform="matrix(0.89864 0.438686 -0.437982 0.898983 26.5073 15.2516)" fill="#A53BF7"/>
<ellipse rx="1.77781" ry="1.77788" transform="matrix(0.89864 0.438686 -0.437982 0.898983 34.492 19.1495)" fill="#A53BF7"/>
<ellipse rx="1.77781" ry="1.77788" transform="matrix(0.898641 0.438686 -0.437982 0.898984 14.6306 19.3414)" fill="#A53BF7"/>
<ellipse rx="1.77781" ry="1.77788" transform="matrix(0.89864 0.438686 -0.437982 0.898983 22.6159 23.2395)" fill="#A53BF7"/>
<ellipse rx="1.77781" ry="1.77788" transform="matrix(0.89864 0.438686 -0.437982 0.898983 30.6004 27.1373)" fill="#A53BF7"/>
<ellipse rx="1.77781" ry="1.77788" transform="matrix(0.898796 0.438366 -0.438302 0.898828 22.4138 3.3644)" fill="#A53BF7"/>
<ellipse rx="1.77781" ry="1.77788" transform="matrix(0.898636 0.438695 -0.437973 0.898988 30.3991 7.26334)" fill="#A53BF7"/>
<ellipse rx="1.77781" ry="1.77788" transform="matrix(0.89864 0.438686 -0.437982 0.898983 38.3838 11.1611)" fill="#A53BF7"/>
<ellipse rx="1.77781" ry="1.77788" transform="matrix(0.898641 0.438686 -0.437982 0.898984 18.5223 11.3535)" fill="#A53BF7"/>
<ellipse rx="1.77781" ry="1.77788" transform="matrix(0.89864 0.438686 -0.437982 0.898983 26.5073 15.2516)" fill="#A53BF7"/>
<ellipse rx="1.77781" ry="1.77788" transform="matrix(0.89864 0.438686 -0.437982 0.898983 34.492 19.1495)" fill="#A53BF7"/>
<ellipse rx="1.77781" ry="1.77788" transform="matrix(0.898641 0.438686 -0.437982 0.898984 14.6306 19.3414)" fill="#A53BF7"/>
<ellipse rx="1.77781" ry="1.77788" transform="matrix(0.89864 0.438686 -0.437982 0.898983 22.6159 23.2395)" fill="#A53BF7"/>
<ellipse rx="1.77781" ry="1.77788" transform="matrix(0.89864 0.438686 -0.437982 0.898983 30.6004 27.1373)" fill="#A53BF7"/>
<ellipse rx="1.77781" ry="1.77788" transform="matrix(0.898641 0.438686 -0.437982 0.898984 10.7389 27.3294)" fill="#A53BF7"/>
<ellipse rx="1.77781" ry="1.77788" transform="matrix(0.898636 0.438696 -0.437973 0.898988 18.724 31.2275)" fill="#A53BF7"/>
<ellipse rx="1.77781" ry="1.77788" transform="matrix(0.898636 0.438695 -0.437973 0.898988 26.7087 35.1254)" fill="#A53BF7"/>
<ellipse rx="1.77781" ry="1.77788" transform="matrix(0.898636 0.438695 -0.437973 0.898988 6.84724 35.3174)" fill="#A53BF7"/>
<ellipse rx="1.77781" ry="1.77788" transform="matrix(0.89864 0.438686 -0.437982 0.898983 14.8323 39.2157)" fill="#A53BF7"/>
<ellipse rx="1.77781" ry="1.77788" transform="matrix(0.89864 0.438686 -0.437982 0.898983 22.8169 43.1135)" fill="#A53BF7"/>
<ellipse rx="1.77781" ry="1.77788" transform="matrix(0.898641 0.438686 -0.437982 0.898984 2.95543 43.3056)" fill="#A53BF7"/>
<ellipse rx="1.77781" ry="1.77788" transform="matrix(0.89864 0.438686 -0.437982 0.898983 10.9407 47.2036)" fill="#A53BF7"/>
<ellipse rx="1.77781" ry="1.77788" transform="matrix(0.89864 0.438687 -0.437982 0.898984 18.9252 51.1015)" fill="#A53BF7"/>
<ellipse rx="1.77781" ry="1.77788" transform="matrix(0.89864 0.438686 -0.437982 0.898983 46.3686 15.0591)" fill="#A53BF7"/>
<ellipse rx="1.77781" ry="1.77788" transform="matrix(0.898636 0.438695 -0.437973 0.898988 54.3537 18.9572)" fill="#A53BF7"/>
<ellipse rx="1.77781" ry="1.77788" transform="matrix(0.898636 0.438695 -0.437973 0.898988 62.3384 22.8551)" fill="#A53BF7"/>
<ellipse rx="1.77781" ry="1.77788" transform="matrix(0.89864 0.438686 -0.437982 0.898983 42.4769 23.0475)" fill="#A53BF7"/>
<ellipse rx="1.77781" ry="1.77788" transform="matrix(0.89864 0.438686 -0.437982 0.898983 50.4618 26.9454)" fill="#A53BF7"/>
<ellipse rx="1.77781" ry="1.77788" transform="matrix(0.89864 0.438686 -0.437982 0.898983 58.4465 30.8434)" fill="#A53BF7"/>
<ellipse rx="1.77781" ry="1.77788" transform="matrix(0.89864 0.438686 -0.437982 0.898983 38.5852 31.0353)" fill="#A53BF7"/>
<ellipse rx="1.77781" ry="1.77788" transform="matrix(0.89864 0.438686 -0.437982 0.898983 46.5702 34.9332)" fill="#A53BF7"/>
<ellipse rx="1.77781" ry="1.77788" transform="matrix(0.89864 0.438686 -0.437982 0.898983 54.555 38.8312)" fill="#A53BF7"/>
<ellipse rx="1.77781" ry="1.77788" transform="matrix(0.89864 0.438686 -0.437982 0.898983 46.3686 15.0591)" fill="#A53BF7"/>
<ellipse rx="1.77781" ry="1.77788" transform="matrix(0.898636 0.438695 -0.437973 0.898988 54.3537 18.9572)" fill="#A53BF7"/>
<ellipse rx="1.77781" ry="1.77788" transform="matrix(0.898636 0.438695 -0.437973 0.898988 62.3384 22.8551)" fill="#A53BF7"/>
<ellipse rx="1.77781" ry="1.77788" transform="matrix(0.89864 0.438686 -0.437982 0.898983 42.4769 23.0475)" fill="#A53BF7"/>
<ellipse rx="1.77781" ry="1.77788" transform="matrix(0.89864 0.438686 -0.437982 0.898983 50.4618 26.9454)" fill="#A53BF7"/>
<ellipse rx="1.77781" ry="1.77788" transform="matrix(0.89864 0.438686 -0.437982 0.898983 58.4465 30.8434)" fill="#A53BF7"/>
<ellipse rx="1.77781" ry="1.77788" transform="matrix(0.89864 0.438686 -0.437982 0.898983 38.5852 31.0353)" fill="#A53BF7"/>
<ellipse rx="1.77781" ry="1.77788" transform="matrix(0.89864 0.438686 -0.437982 0.898983 46.5702 34.9332)" fill="#A53BF7"/>
<ellipse rx="1.77781" ry="1.77788" transform="matrix(0.89864 0.438686 -0.437982 0.898983 54.555 38.8312)" fill="#A53BF7"/>
<ellipse rx="1.77781" ry="1.77788" transform="matrix(0.898636 0.438695 -0.437973 0.898988 34.6935 39.0233)" fill="#A53BF7"/>
<ellipse rx="1.77781" ry="1.77788" transform="matrix(0.898636 0.438695 -0.437973 0.898988 42.6785 42.9213)" fill="#A53BF7"/>
<ellipse rx="1.77781" ry="1.77788" transform="matrix(0.898636 0.438695 -0.437973 0.898988 50.6632 46.8192)" fill="#A53BF7"/>
<ellipse rx="1.77781" ry="1.77788" transform="matrix(0.89864 0.438686 -0.437982 0.898983 30.8017 47.0115)" fill="#A53BF7"/>
<ellipse rx="1.77781" ry="1.77788" transform="matrix(0.89864 0.438686 -0.437982 0.898983 38.7867 50.9094)" fill="#A53BF7"/>
<ellipse rx="1.77781" ry="1.77788" transform="matrix(0.89864 0.438687 -0.437982 0.898984 46.7715 54.8074)" fill="#A53BF7"/>
<ellipse rx="1.77781" ry="1.77788" transform="matrix(0.89864 0.438686 -0.437982 0.898983 26.9101 54.9994)" fill="#A53BF7"/>
<ellipse rx="1.77781" ry="1.77788" transform="matrix(0.89864 0.438686 -0.437982 0.898983 34.895 58.8975)" fill="#A53BF7"/>
<ellipse rx="1.77781" ry="1.77788" transform="matrix(0.89864 0.438686 -0.437982 0.898983 42.8797 62.7953)" fill="#A53BF7"/>
</svg>
