<svg width="114" height="114" viewBox="0 0 114 114" fill="none" xmlns="http://www.w3.org/2000/svg">
<ellipse rx="2.96288" ry="2.96301" transform="matrix(0.707107 -0.707107 0.707165 0.707049 4.64027 56.5684)" fill="#003B89"/>
<ellipse rx="2.96288" ry="2.96301" transform="matrix(0.707357 -0.706857 0.707414 0.706799 15.1173 46.1003)" fill="#003B89"/>
<ellipse rx="2.96288" ry="2.96301" transform="matrix(0.707357 -0.706857 0.707414 0.706799 25.5926 35.6325)" fill="#003B89"/>
<ellipse rx="2.96288" ry="2.96301" transform="matrix(0.707356 -0.706857 0.707415 0.706799 15.1184 67.036)" fill="#003B89"/>
<ellipse rx="2.96288" ry="2.96301" transform="matrix(0.707357 -0.706857 0.707415 0.706799 25.594 56.5678)" fill="#003B89"/>
<ellipse rx="2.96288" ry="2.96301" transform="matrix(0.707357 -0.706857 0.707415 0.706799 36.0692 46.1)" fill="#003B89"/>
<ellipse rx="2.96288" ry="2.96301" transform="matrix(0.707356 -0.706857 0.707415 0.706799 25.5946 77.5031)" fill="#003B89"/>
<ellipse rx="2.96288" ry="2.96301" transform="matrix(0.707357 -0.706857 0.707415 0.706799 36.0705 67.0346)" fill="#003B89"/>
<ellipse rx="2.96288" ry="2.96301" transform="matrix(0.707357 -0.706857 0.707415 0.706799 46.5454 56.5671)" fill="#003B89"/>
<ellipse rx="2.96288" ry="2.96301" transform="matrix(0.707107 -0.707107 0.707165 0.707049 4.64027 56.5684)" fill="#003B89"/>
<ellipse rx="2.96288" ry="2.96301" transform="matrix(0.707357 -0.706857 0.707414 0.706799 15.1173 46.1003)" fill="#003B89"/>
<ellipse rx="2.96288" ry="2.96301" transform="matrix(0.707357 -0.706857 0.707414 0.706799 25.5926 35.6325)" fill="#003B89"/>
<ellipse rx="2.96288" ry="2.96301" transform="matrix(0.707356 -0.706857 0.707415 0.706799 15.1184 67.036)" fill="#003B89"/>
<ellipse rx="2.96288" ry="2.96301" transform="matrix(0.707357 -0.706857 0.707415 0.706799 25.594 56.5678)" fill="#003B89"/>
<ellipse rx="2.96288" ry="2.96301" transform="matrix(0.707357 -0.706857 0.707415 0.706799 36.0692 46.1)" fill="#003B89"/>
<ellipse rx="2.96288" ry="2.96301" transform="matrix(0.707356 -0.706857 0.707415 0.706799 25.5946 77.5031)" fill="#003B89"/>
<ellipse rx="2.96288" ry="2.96301" transform="matrix(0.707357 -0.706857 0.707415 0.706799 36.0705 67.0346)" fill="#003B89"/>
<ellipse rx="2.96288" ry="2.96301" transform="matrix(0.707357 -0.706857 0.707415 0.706799 46.5454 56.5671)" fill="#003B89"/>
<ellipse rx="2.96288" ry="2.96301" transform="matrix(0.707356 -0.706857 0.707415 0.706799 36.071 87.9703)" fill="#003B89"/>
<ellipse rx="2.96288" ry="2.96301" transform="matrix(0.707357 -0.706857 0.707415 0.706799 46.5466 77.5021)" fill="#003B89"/>
<ellipse rx="2.96288" ry="2.96301" transform="matrix(0.707357 -0.706857 0.707415 0.706799 57.0218 67.0343)" fill="#003B89"/>
<ellipse rx="2.96288" ry="2.96301" transform="matrix(0.707356 -0.706857 0.707415 0.706799 46.5475 98.4377)" fill="#003B89"/>
<ellipse rx="2.96288" ry="2.96301" transform="matrix(0.707357 -0.706857 0.707415 0.706799 57.0234 87.9692)" fill="#003B89"/>
<ellipse rx="2.96288" ry="2.96301" transform="matrix(0.707357 -0.706857 0.707415 0.706799 67.4983 77.5016)" fill="#003B89"/>
<ellipse rx="2.96288" ry="2.96301" transform="matrix(0.707356 -0.706857 0.707415 0.706799 57.024 108.905)" fill="#003B89"/>
<ellipse rx="2.96288" ry="2.96301" transform="matrix(0.707357 -0.706857 0.707415 0.706799 67.4998 98.4364)" fill="#003B89"/>
<ellipse rx="2.96288" ry="2.96301" transform="matrix(0.707357 -0.706857 0.707415 0.706799 77.9747 87.9689)" fill="#003B89"/>
<ellipse rx="2.96288" ry="2.96301" transform="matrix(0.707357 -0.706857 0.707414 0.706799 36.0679 25.1645)" fill="#003B89"/>
<ellipse rx="2.96288" ry="2.96301" transform="matrix(0.707357 -0.706857 0.707414 0.706799 46.5435 14.6962)" fill="#003B89"/>
<ellipse rx="2.96288" ry="2.96301" transform="matrix(0.707357 -0.706857 0.707414 0.706799 57.0187 4.22849)" fill="#003B89"/>
<ellipse rx="2.96288" ry="2.96301" transform="matrix(0.707357 -0.706857 0.707415 0.706799 46.5447 35.632)" fill="#003B89"/>
<ellipse rx="2.96288" ry="2.96301" transform="matrix(0.707357 -0.706857 0.707415 0.706799 57.0202 25.1639)" fill="#003B89"/>
<ellipse rx="2.96288" ry="2.96301" transform="matrix(0.707357 -0.706857 0.707415 0.706799 67.4954 14.696)" fill="#003B89"/>
<ellipse rx="2.96288" ry="2.96301" transform="matrix(0.707357 -0.706857 0.707415 0.706799 57.0208 46.099)" fill="#003B89"/>
<ellipse rx="2.96288" ry="2.96301" transform="matrix(0.707357 -0.706857 0.707415 0.706799 67.4963 35.6309)" fill="#003B89"/>
<ellipse rx="2.96288" ry="2.96301" transform="matrix(0.707357 -0.706857 0.707415 0.706799 77.9716 25.163)" fill="#003B89"/>
<ellipse rx="2.96288" ry="2.96301" transform="matrix(0.707357 -0.706857 0.707414 0.706799 36.0679 25.1645)" fill="#003B89"/>
<ellipse rx="2.96288" ry="2.96301" transform="matrix(0.707357 -0.706857 0.707414 0.706799 46.5435 14.6962)" fill="#003B89"/>
<ellipse rx="2.96288" ry="2.96301" transform="matrix(0.707357 -0.706857 0.707414 0.706799 57.0187 4.22849)" fill="#003B89"/>
<ellipse rx="2.96288" ry="2.96301" transform="matrix(0.707357 -0.706857 0.707415 0.706799 46.5447 35.632)" fill="#003B89"/>
<ellipse rx="2.96288" ry="2.96301" transform="matrix(0.707357 -0.706857 0.707415 0.706799 57.0202 25.1639)" fill="#003B89"/>
<ellipse rx="2.96288" ry="2.96301" transform="matrix(0.707357 -0.706857 0.707415 0.706799 67.4954 14.696)" fill="#003B89"/>
<ellipse rx="2.96288" ry="2.96301" transform="matrix(0.707357 -0.706857 0.707415 0.706799 57.0208 46.099)" fill="#003B89"/>
<ellipse rx="2.96288" ry="2.96301" transform="matrix(0.707357 -0.706857 0.707415 0.706799 67.4963 35.6309)" fill="#003B89"/>
<ellipse rx="2.96288" ry="2.96301" transform="matrix(0.707357 -0.706857 0.707415 0.706799 77.9716 25.163)" fill="#003B89"/>
<ellipse rx="2.96288" ry="2.96301" transform="matrix(0.707357 -0.706857 0.707415 0.706799 67.4972 56.5663)" fill="#003B89"/>
<ellipse rx="2.96288" ry="2.96301" transform="matrix(0.707357 -0.706857 0.707415 0.706799 77.9727 46.0983)" fill="#003B89"/>
<ellipse rx="2.96288" ry="2.96301" transform="matrix(0.707357 -0.706857 0.707415 0.706799 88.448 35.6303)" fill="#003B89"/>
<ellipse rx="2.96288" ry="2.96301" transform="matrix(0.707357 -0.706857 0.707415 0.706799 77.9736 67.0336)" fill="#003B89"/>
<ellipse rx="2.96288" ry="2.96301" transform="matrix(0.707357 -0.706857 0.707415 0.706799 88.4492 56.5656)" fill="#003B89"/>
<ellipse rx="2.96288" ry="2.96301" transform="matrix(0.707357 -0.706857 0.707415 0.706799 98.9245 46.0976)" fill="#003B89"/>
<ellipse rx="2.96288" ry="2.96301" transform="matrix(0.707357 -0.706857 0.707415 0.706799 88.45 77.5009)" fill="#003B89"/>
<ellipse rx="2.96288" ry="2.96301" transform="matrix(0.707357 -0.706857 0.707415 0.706799 98.9256 67.0329)" fill="#003B89"/>
<ellipse rx="2.96288" ry="2.96301" transform="matrix(0.707357 -0.706857 0.707415 0.706799 109.401 56.5651)" fill="#003B89"/>
</svg>
