<svg width="126" height="171" viewBox="0 0 126 171" fill="none" xmlns="http://www.w3.org/2000/svg">
<ellipse rx="4.44424" ry="4.44443" transform="matrix(0.707105 -0.707108 0.707163 0.70705 6.70113 85.4772)" fill="#7208C4"/>
<ellipse rx="4.44424" ry="4.44443" transform="matrix(0.707359 -0.706854 0.707417 0.706796 22.4164 69.7753)" fill="#7208C4"/>
<ellipse rx="4.44424" ry="4.44443" transform="matrix(0.707353 -0.706861 0.70741 0.706803 38.129 54.0738)" fill="#7208C4"/>
<ellipse rx="4.44424" ry="4.44443" transform="matrix(0.707356 -0.706858 0.707414 0.706799 22.4181 101.178)" fill="#7208C4"/>
<ellipse rx="4.44424" ry="4.44443" transform="matrix(0.707352 -0.706861 0.70741 0.706803 38.1312 85.4762)" fill="#7208C4"/>
<ellipse rx="4.44424" ry="4.44443" transform="matrix(0.707359 -0.706854 0.707417 0.706796 53.8436 69.7749)" fill="#7208C4"/>
<ellipse rx="4.44424" ry="4.44443" transform="matrix(0.707356 -0.706858 0.707414 0.706799 38.1321 116.879)" fill="#7208C4"/>
<ellipse rx="4.44424" ry="4.44443" transform="matrix(0.707356 -0.706858 0.707414 0.7068 53.8456 101.176)" fill="#7208C4"/>
<ellipse rx="4.44424" ry="4.44443" transform="matrix(0.707356 -0.706858 0.707414 0.7068 69.5576 85.4751)" fill="#7208C4"/>
<ellipse rx="4.44424" ry="4.44443" transform="matrix(0.707105 -0.707108 0.707163 0.70705 6.70113 85.4772)" fill="#7208C4"/>
<ellipse rx="4.44424" ry="4.44443" transform="matrix(0.707359 -0.706854 0.707417 0.706796 22.4164 69.7753)" fill="#7208C4"/>
<ellipse rx="4.44424" ry="4.44443" transform="matrix(0.707353 -0.706861 0.70741 0.706803 38.129 54.0738)" fill="#7208C4"/>
<ellipse rx="4.44424" ry="4.44443" transform="matrix(0.707356 -0.706858 0.707414 0.706799 22.4181 101.178)" fill="#7208C4"/>
<ellipse rx="4.44424" ry="4.44443" transform="matrix(0.707352 -0.706861 0.70741 0.706803 38.1312 85.4762)" fill="#7208C4"/>
<ellipse rx="4.44424" ry="4.44443" transform="matrix(0.707359 -0.706854 0.707417 0.706796 53.8436 69.7749)" fill="#7208C4"/>
<ellipse rx="4.44424" ry="4.44443" transform="matrix(0.707356 -0.706858 0.707414 0.706799 38.1321 116.879)" fill="#7208C4"/>
<ellipse rx="4.44424" ry="4.44443" transform="matrix(0.707356 -0.706858 0.707414 0.7068 53.8456 101.176)" fill="#7208C4"/>
<ellipse rx="4.44424" ry="4.44443" transform="matrix(0.707356 -0.706858 0.707414 0.7068 69.5576 85.4751)" fill="#7208C4"/>
<ellipse rx="4.44424" ry="4.44443" transform="matrix(0.707356 -0.706858 0.707414 0.706799 53.8464 132.579)" fill="#7208C4"/>
<ellipse rx="4.44424" ry="4.44443" transform="matrix(0.707356 -0.706858 0.707414 0.7068 69.5594 116.877)" fill="#7208C4"/>
<ellipse rx="4.44424" ry="4.44443" transform="matrix(0.707359 -0.706854 0.707417 0.706796 85.272 101.176)" fill="#7208C4"/>
<ellipse rx="4.44424" ry="4.44443" transform="matrix(0.707356 -0.706858 0.707414 0.706799 69.5608 148.28)" fill="#7208C4"/>
<ellipse rx="4.44424" ry="4.44443" transform="matrix(0.707359 -0.706854 0.707417 0.706796 85.2742 132.577)" fill="#7208C4"/>
<ellipse rx="4.44424" ry="4.44443" transform="matrix(0.707356 -0.706858 0.707414 0.7068 100.986 116.876)" fill="#7208C4"/>
<ellipse rx="4.44424" ry="4.44443" transform="matrix(0.707359 -0.706855 0.707418 0.706796 85.2752 163.98)" fill="#7208C4"/>
<ellipse rx="4.44424" ry="4.44443" transform="matrix(0.707356 -0.706858 0.707414 0.7068 100.989 148.278)" fill="#7208C4"/>
<ellipse rx="4.44424" ry="4.44443" transform="matrix(0.707359 -0.706854 0.707417 0.706796 116.701 132.577)" fill="#7208C4"/>
<ellipse rx="4.44424" ry="4.44443" transform="matrix(0.707359 -0.706854 0.707417 0.706796 53.8417 38.3722)" fill="#7208C4"/>
<ellipse rx="4.44424" ry="4.44443" transform="matrix(0.707356 -0.706858 0.707414 0.7068 69.5547 22.67)" fill="#7208C4"/>
<ellipse rx="4.44424" ry="4.44443" transform="matrix(0.707359 -0.706854 0.707417 0.706796 85.2672 6.96875)" fill="#7208C4"/>
<ellipse rx="4.44424" ry="4.44443" transform="matrix(0.707356 -0.706858 0.707414 0.7068 69.5565 54.0731)" fill="#7208C4"/>
<ellipse rx="4.44424" ry="4.44443" transform="matrix(0.707356 -0.706858 0.707414 0.7068 85.2694 38.3712)" fill="#7208C4"/>
<ellipse rx="4.44424" ry="4.44443" transform="matrix(0.707356 -0.706858 0.707414 0.7068 100.982 22.6698)" fill="#7208C4"/>
<ellipse rx="4.44424" ry="4.44443" transform="matrix(0.707359 -0.706854 0.707417 0.706796 85.2704 69.7734)" fill="#7208C4"/>
<ellipse rx="4.44424" ry="4.44443" transform="matrix(0.707359 -0.706854 0.707417 0.706796 100.983 54.0715)" fill="#7208C4"/>
<ellipse rx="4.44424" ry="4.44443" transform="matrix(0.707359 -0.706854 0.707417 0.706796 116.696 38.37)" fill="#7208C4"/>
<ellipse rx="4.44424" ry="4.44443" transform="matrix(0.707359 -0.706854 0.707417 0.706796 53.8417 38.3722)" fill="#7208C4"/>
<ellipse rx="4.44424" ry="4.44443" transform="matrix(0.707356 -0.706858 0.707414 0.7068 69.5547 22.67)" fill="#7208C4"/>
<ellipse rx="4.44424" ry="4.44443" transform="matrix(0.707359 -0.706854 0.707417 0.706796 85.2672 6.96875)" fill="#7208C4"/>
<ellipse rx="4.44424" ry="4.44443" transform="matrix(0.707356 -0.706858 0.707414 0.7068 69.5565 54.0731)" fill="#7208C4"/>
<ellipse rx="4.44424" ry="4.44443" transform="matrix(0.707356 -0.706858 0.707414 0.7068 85.2694 38.3712)" fill="#7208C4"/>
<ellipse rx="4.44424" ry="4.44443" transform="matrix(0.707356 -0.706858 0.707414 0.7068 100.982 22.6698)" fill="#7208C4"/>
<ellipse rx="4.44424" ry="4.44443" transform="matrix(0.707359 -0.706854 0.707417 0.706796 85.2704 69.7734)" fill="#7208C4"/>
<ellipse rx="4.44424" ry="4.44443" transform="matrix(0.707359 -0.706854 0.707417 0.706796 100.983 54.0715)" fill="#7208C4"/>
<ellipse rx="4.44424" ry="4.44443" transform="matrix(0.707359 -0.706854 0.707417 0.706796 116.696 38.37)" fill="#7208C4"/>
<ellipse rx="4.44424" ry="4.44443" transform="matrix(0.707356 -0.706858 0.707414 0.7068 100.985 85.4741)" fill="#7208C4"/>
<ellipse rx="4.44424" ry="4.44443" transform="matrix(0.707359 -0.706854 0.707417 0.706796 116.698 69.7723)" fill="#7208C4"/>
<ellipse rx="4.44424" ry="4.44443" transform="matrix(0.707356 -0.706858 0.707414 0.7068 116.699 101.175)" fill="#7208C4"/>
</svg>
