<svg width="178" height="177" viewBox="0 0 178 177" fill="none" xmlns="http://www.w3.org/2000/svg">
<path fill-rule="evenodd" clip-rule="evenodd" d="M119.252 9.46424C121.722 8.24376 122.734 5.25148 121.512 2.78082C120.291 0.310156 117.298 -0.70331 114.829 0.51718C112.359 1.73767 111.347 4.72994 112.568 7.2006C113.79 9.67127 116.782 10.6847 119.252 9.46424ZM99.1624 13.8255C100.384 16.2961 99.3719 19.2884 96.9021 20.5089C94.4323 21.7294 91.44 20.7159 90.2186 18.2453C88.9971 15.7746 90.0091 12.7823 92.4789 11.5618C94.9487 10.3413 97.941 11.3548 99.1624 13.8255ZM74.5516 31.5538C77.0214 30.3333 78.0334 27.341 76.8119 24.8703C75.5905 22.3997 72.5982 21.3862 70.1284 22.6067C67.6586 23.8272 66.6467 26.8194 67.8681 29.2901C69.0895 31.7608 72.0818 32.7742 74.5516 31.5538ZM54.4618 35.9151C55.6833 38.3858 54.6713 41.3781 52.2015 42.5986C49.7318 43.819 46.7395 42.8056 45.518 40.3349C44.2966 37.8643 45.3086 34.872 47.7783 33.6515C50.2481 32.431 53.2404 33.4445 54.4618 35.9151ZM29.8514 53.6434C32.3211 52.4229 33.3331 49.4307 32.1117 46.96C30.8902 44.4893 27.8979 43.4759 25.4281 44.6963C22.9584 45.9168 21.9464 48.9091 23.1678 51.3798C24.3893 53.8504 27.3816 54.8639 29.8514 53.6434ZM7.49748 64.688C9.96682 63.4667 10.9792 60.4733 9.75859 58.0022C8.53802 55.5311 5.54676 54.518 3.07742 55.7394C0.608084 56.9607 -0.40425 59.9541 0.816314 62.4252C2.03688 64.8963 5.02814 65.9094 7.49748 64.688ZM18.555 87.0469C21.0247 85.8264 22.0367 82.8341 20.8153 80.3635C19.5938 77.8928 16.6015 76.8793 14.1317 78.0998C11.662 79.3203 10.65 82.3126 11.8714 84.7832C13.0929 87.2539 16.0852 88.2674 18.555 87.0469ZM43.1653 69.3187C44.3868 71.7894 43.3748 74.7817 40.905 76.0021C38.4352 77.2226 35.4429 76.2092 34.2215 73.7385C33.0001 71.2678 34.012 68.2756 36.4818 67.0551C38.9516 65.8346 41.9439 66.8481 43.1653 69.3187ZM63.2552 64.9575C65.725 63.737 66.737 60.7447 65.5155 58.2741C64.2941 55.8034 61.3018 54.79 58.832 56.0104C56.3622 57.2309 55.3502 60.2232 56.5717 62.6939C57.7931 65.1645 60.7854 66.178 63.2552 64.9575ZM31.8688 102.722C33.0902 105.193 32.0783 108.185 29.6085 109.406C27.1387 110.626 24.1464 109.613 22.925 107.142C21.7035 104.671 22.7155 101.679 25.1853 100.458C27.6551 99.238 30.6474 100.251 31.8688 102.722ZM51.9592 98.3606C54.429 97.1401 55.441 94.1479 54.2195 91.6772C52.9981 89.2066 50.0058 88.1931 47.536 89.4136C45.0662 90.6341 44.0543 93.6263 45.2757 96.097C46.4971 98.5677 49.4895 99.5811 51.9592 98.3606ZM76.5691 80.6329C77.7905 83.1036 76.7785 86.0958 74.3088 87.3163C71.839 88.5368 68.8467 87.5233 67.6252 85.0527C66.4038 82.582 67.4158 79.5898 69.8855 78.3693C72.3553 77.1488 75.3476 78.1622 76.5691 80.6329ZM42.923 125.082C44.1444 127.552 43.1324 130.545 40.6626 131.765C38.1929 132.986 35.2006 131.972 33.9791 129.501C32.7577 127.031 33.7697 124.039 36.2394 122.818C38.7092 121.598 41.7015 122.611 42.923 125.082ZM63.0127 120.72C65.4825 119.5 66.4945 116.508 65.273 114.037C64.0516 111.566 61.0593 110.553 58.5895 111.773C56.1197 112.994 55.1077 115.986 56.3292 118.457C57.5506 120.927 60.5429 121.941 63.0127 120.72ZM87.6233 102.992C88.8447 105.463 87.8327 108.455 85.363 109.676C82.8932 110.896 79.9009 109.883 78.6794 107.412C77.458 104.941 78.47 101.949 80.9397 100.729C83.4095 99.5082 86.4018 100.522 87.6233 102.992ZM51.7161 154.124C54.1859 152.903 55.1979 149.911 53.9764 147.44C52.755 144.969 49.7627 143.956 47.2929 145.176C44.8231 146.397 43.8112 149.389 45.0326 151.86C46.254 154.331 49.2464 155.344 51.7161 154.124ZM76.3269 136.395C77.5483 138.866 76.5363 141.858 74.0666 143.078C71.5968 144.299 68.6045 143.285 67.383 140.815C66.1616 138.344 67.1736 135.352 69.6433 134.131C72.1131 132.911 75.1054 133.924 76.3269 136.395ZM96.4165 132.034C98.8863 130.814 99.8982 127.822 98.6768 125.351C97.4554 122.88 94.4631 121.867 91.9933 123.087C89.5235 124.308 88.5115 127.3 89.733 129.771C90.9544 132.241 93.9467 133.255 96.4165 132.034ZM65.0303 169.799C66.2518 172.27 65.2398 175.262 62.77 176.483C60.3003 177.703 57.3079 176.69 56.0865 174.219C54.8651 171.748 55.877 168.756 58.3468 167.536C60.8166 166.315 63.8089 167.329 65.0303 169.799ZM85.121 165.438C87.5908 164.217 88.6028 161.225 87.3813 158.754C86.1599 156.284 83.1676 155.27 80.6978 156.491C78.228 157.711 77.216 160.703 78.4375 163.174C79.6589 165.645 82.6512 166.658 85.121 165.438ZM109.731 147.71C110.952 150.181 109.94 153.173 107.47 154.393C105 155.614 102.008 154.6 100.787 152.13C99.5653 149.659 100.577 146.667 103.047 145.446C105.517 144.226 108.509 145.239 109.731 147.71ZM87.8656 47.2293C89.0871 49.7 88.0751 52.6922 85.6053 53.9127C83.1356 55.1332 80.1432 54.1198 78.9218 51.6491C77.7004 49.1784 78.7123 46.1862 81.1821 44.9657C83.6519 43.7452 86.6442 44.7586 87.8656 47.2293ZM107.956 42.8678C110.425 41.6473 111.437 38.655 110.216 36.1844C108.995 33.7137 106.002 32.7002 103.532 33.9207C101.063 35.1412 100.051 38.1335 101.272 40.6041C102.494 43.0748 105.486 44.0883 107.956 42.8678ZM132.566 25.1397C133.787 27.6104 132.775 30.6027 130.306 31.8232C127.836 33.0437 124.844 32.0302 123.622 29.5595C122.401 27.0889 123.413 24.0966 125.882 22.8761C128.352 21.6556 131.345 22.6691 132.566 25.1397ZM96.6591 76.2716C99.1288 75.0511 100.141 72.0589 98.9194 69.5882C97.6979 67.1175 94.7056 66.1041 92.2358 67.3246C89.7661 68.545 88.7541 71.5373 89.9755 74.008C91.197 76.4786 94.1893 77.4921 96.6591 76.2716ZM121.27 58.5432C122.491 61.0139 121.479 64.0061 119.009 65.2266C116.54 66.4471 113.547 65.4337 112.326 62.963C111.104 60.4923 112.116 57.5001 114.586 56.2796C117.056 55.0591 120.048 56.0725 121.27 58.5432ZM141.359 54.1821C143.829 52.9617 144.841 49.9694 143.62 47.4987C142.398 45.0281 139.406 44.0146 136.936 45.2351C134.466 46.4556 133.454 49.4478 134.676 51.9185C135.897 54.3892 138.889 55.4026 141.359 54.1821ZM107.713 98.631C110.183 97.4105 111.195 94.4182 109.973 91.9476C108.752 89.4769 105.76 88.4634 103.29 89.6839C100.82 90.9044 99.8081 93.8967 101.03 96.3674C102.251 98.838 105.243 99.8515 107.713 98.631ZM132.324 80.9027C133.545 83.3734 132.533 86.3656 130.064 87.5861C127.594 88.8066 124.602 87.7932 123.38 85.3225C122.159 82.8518 123.171 79.8596 125.64 78.6391C128.11 77.4186 131.103 78.432 132.324 80.9027ZM152.413 76.5415C154.883 75.321 155.895 72.3288 154.674 69.8581C153.452 67.3875 150.46 66.374 147.99 67.5945C145.52 68.815 144.508 71.8072 145.73 74.2779C146.951 76.7486 149.944 77.762 152.413 76.5415ZM121.027 114.306C122.248 116.777 121.236 119.769 118.767 120.99C116.297 122.21 113.305 121.197 112.083 118.726C110.862 116.255 111.874 113.263 114.343 112.043C116.813 110.822 119.806 111.836 121.027 114.306ZM141.117 109.945C143.587 108.724 144.599 105.732 143.377 103.261C142.156 100.791 139.164 99.7771 136.694 100.998C134.224 102.218 133.212 105.21 134.434 107.681C135.655 110.152 138.647 111.165 141.117 109.945ZM165.727 92.2166C166.949 94.6872 165.937 97.6795 163.467 98.9C160.997 100.12 158.005 99.107 156.783 96.6364C155.562 94.1657 156.574 91.1734 159.044 89.9529C161.513 88.7324 164.506 89.7459 165.727 92.2166ZM129.82 143.349C132.29 142.128 133.302 139.136 132.08 136.665C130.859 134.194 127.867 133.181 125.397 134.401C122.927 135.622 121.915 138.614 123.137 141.085C124.358 143.556 127.35 144.569 129.82 143.349ZM154.431 125.62C155.652 128.091 154.64 131.083 152.171 132.304C149.701 133.524 146.709 132.511 145.487 130.04C144.266 127.569 145.278 124.577 147.748 123.357C150.217 122.136 153.21 123.15 154.431 125.62ZM174.52 121.259C176.99 120.039 178.002 117.046 176.781 114.576C175.559 112.105 172.567 111.092 170.097 112.312C167.627 113.533 166.615 116.525 167.837 118.995C169.058 121.466 172.051 122.48 174.52 121.259Z" fill="url(#paint0_linear_303_2642)"/>
<defs>
<linearGradient id="paint0_linear_303_2642" x1="88.6664" y1="0.173612" x2="88.3713" y2="176.86" gradientUnits="userSpaceOnUse">
<stop stop-color="#155AB7"/>
<stop offset="1" stop-color="#8E0AF5"/>
</linearGradient>
</defs>
</svg>
