<svg width="135" height="135" viewBox="0 0 135 135" fill="none" xmlns="http://www.w3.org/2000/svg">
<path opacity="0.9" fill-rule="evenodd" clip-rule="evenodd" d="M5.00035 9.99984C7.76174 9.99984 10.0001 7.7613 9.99988 4.99992C9.99965 2.23854 7.76092 0 4.99953 0C2.23814 0 -0.000227265 2.23854 0 4.99992C0.0002273 7.7613 2.23896 9.99984 5.00035 9.99984ZM29.993 10.0104C32.7544 10.0114 34.992 7.77361 34.9908 5.01223C34.9896 2.25085 32.7501 0.0115199 29.9887 0.0105428C27.2273 0.00956583 24.9897 2.24731 24.9909 5.00869C24.9921 7.77007 27.2316 10.0094 29.993 10.0104ZM59.9792 5.0211C59.9804 7.78248 57.7428 10.0202 54.9814 10.0193C52.22 10.0183 49.9805 7.77894 49.9793 5.01756C49.9781 2.25618 52.2156 0.0184312 54.977 0.0194082C57.7384 0.0203852 59.978 2.25972 59.9792 5.0211ZM5.01462 34.9924C7.77602 34.9934 10.0136 32.7556 10.0124 29.9943C10.0112 27.2329 7.77166 24.9935 5.01026 24.9926C2.24887 24.9916 0.0112919 27.2293 0.0124964 29.9907C0.0137009 32.7521 2.25323 34.9914 5.01462 34.9924ZM35.0016 30.0031C35.0028 32.7645 32.7652 35.0022 30.0039 35.0012C27.2425 35.0003 25.003 32.7609 25.0018 29.9995C25.0006 27.2382 27.2381 25.0004 29.9995 25.0014C32.7609 25.0024 35.0004 27.2417 35.0016 30.0031ZM54.9924 35.0101C57.7537 35.0111 59.9913 32.7733 59.9901 30.0119C59.9889 27.2506 57.7494 25.0112 54.988 25.0103C52.2266 25.0093 49.989 27.247 49.9902 30.0084C49.9914 32.7698 52.231 35.0091 54.9924 35.0101ZM10.0234 54.9838C10.0246 57.7452 7.78699 59.9829 5.0256 59.9819C2.26421 59.981 0.0246872 57.7416 0.0234827 54.9803C0.0222782 52.2189 2.25985 49.9811 5.02124 49.9821C7.78263 49.9831 10.0222 52.2224 10.0234 54.9838ZM30.0155 59.9907C32.7768 59.9917 35.0144 57.7539 35.0132 54.9926C35.012 52.2312 32.7725 49.9918 30.0111 49.9909C27.2497 49.9899 25.0121 52.2276 25.0133 54.989C25.0145 57.7504 27.2541 59.9897 30.0155 59.9907ZM60.001 55.0014C60.0022 57.7628 57.7646 60.0005 55.0032 59.9996C52.2418 59.9986 50.0023 57.7593 50.0011 54.9979C49.9999 52.2365 52.2375 49.9987 54.9989 49.9997C57.7603 50.0007 59.9998 52.24 60.001 55.0014ZM10.0343 79.9739C10.0355 82.7353 7.79795 84.973 5.03656 84.9721C2.27517 84.9711 0.035643 82.7318 0.0344385 79.9704C0.033234 77.209 2.27081 74.9713 5.0322 74.9722C7.79359 74.9732 10.0331 77.2125 10.0343 79.9739ZM30.0257 84.9809C32.7871 84.9819 35.0247 82.7442 35.0235 79.9828C35.0223 77.2214 32.7827 74.9821 30.0213 74.9811C27.26 74.9801 25.0224 77.2179 25.0236 79.9793C25.0248 82.7406 27.2643 84.98 30.0257 84.9809ZM60.0119 79.9916C60.0131 82.753 57.7755 84.9908 55.0142 84.9898C52.2528 84.9888 50.0133 82.7495 50.0121 79.9881C50.0109 77.2267 52.2484 74.989 55.0098 74.99C57.7712 74.9909 60.0107 77.2303 60.0119 79.9916ZM5.04738 109.962C7.80877 109.963 10.0463 107.726 10.0451 104.964C10.0439 102.203 7.8044 99.9635 5.04301 99.9625C2.28162 99.9615 0.0440525 102.199 0.045257 104.961C0.0464615 107.722 2.28599 109.961 5.04738 109.962ZM35.035 104.973C35.0362 107.734 32.7986 109.972 30.0373 109.971C27.2759 109.97 25.0364 107.731 25.0352 104.969C25.034 102.208 27.2715 99.9704 30.0329 99.9713C32.7943 99.9723 35.0338 102.212 35.035 104.973ZM55.025 109.98C57.7864 109.981 60.024 107.743 60.0228 104.982C60.0216 102.22 57.7821 99.9812 55.0207 99.9802C52.2593 99.9792 50.0217 102.217 50.0229 104.978C50.0241 107.74 52.2636 109.979 55.025 109.98ZM10.0561 129.954C10.0573 132.716 7.81974 134.953 5.05835 134.953C2.29697 134.952 0.0574478 132.712 0.0562433 129.951C0.0550388 127.189 2.29261 124.952 5.05399 124.953C7.81538 124.954 10.0549 127.193 10.0561 129.954ZM30.048 134.961C32.8094 134.962 35.047 132.725 35.0458 129.963C35.0446 127.202 32.805 124.962 30.0437 124.961C27.2823 124.961 25.0447 127.198 25.0459 129.96C25.0471 132.721 27.2866 134.96 30.048 134.961ZM60.0335 129.972C60.0347 132.733 57.7971 134.971 55.0358 134.97C52.2744 134.969 50.0348 132.73 50.0336 129.969C50.0324 127.207 52.27 124.969 55.0314 124.97C57.7928 124.971 60.0323 127.211 60.0335 129.972ZM79.9702 10.0281C82.7316 10.029 84.9692 7.7913 84.968 5.02992C84.9668 2.26854 82.7273 0.0292048 79.9659 0.0282278C77.2045 0.0272508 74.9669 2.265 74.9681 5.02638C74.9693 7.78776 77.2088 10.0271 79.9702 10.0281ZM109.957 5.03885C109.958 7.80023 107.721 10.038 104.959 10.037C102.198 10.036 99.9585 7.79669 99.9573 5.03531C99.9561 2.27393 102.194 0.0361772 104.955 0.0371542C107.716 0.0381312 109.956 2.27747 109.957 5.03885ZM129.948 10.0458C132.709 10.0468 134.947 7.80905 134.946 5.04767C134.945 2.28628 132.705 0.0469508 129.944 0.0459738C127.182 0.0449967 124.945 2.28275 124.946 5.04413C124.947 7.80551 127.187 10.0448 129.948 10.0458ZM84.9791 30.0208C84.9803 32.7822 82.7427 35.02 79.9813 35.019C77.2199 35.018 74.9804 32.7787 74.9792 30.0173C74.978 27.2559 77.2156 25.0182 79.977 25.0191C82.7383 25.0201 84.9779 27.2594 84.9791 30.0208ZM104.97 35.0278C107.732 35.0288 109.969 32.791 109.968 30.0296C109.967 27.2683 107.727 25.0289 104.966 25.028C102.205 25.027 99.967 27.2647 99.9682 30.0261C99.9694 32.7875 102.209 35.0268 104.97 35.0278ZM134.957 30.0385C134.958 32.7999 132.72 35.0376 129.959 35.0367C127.197 35.0357 124.958 32.7964 124.957 30.035C124.955 27.2736 127.193 25.0358 129.954 25.0368C132.716 25.0378 134.955 27.2771 134.957 30.0385ZM79.9919 60.0084C82.7533 60.0094 84.9909 57.7717 84.9897 55.0103C84.9885 52.2489 82.749 50.0096 79.9876 50.0086C77.2262 50.0076 74.9886 52.2454 74.9898 55.0068C74.991 57.7681 77.2306 60.0075 79.9919 60.0084ZM109.979 55.0191C109.98 57.7804 107.743 60.0182 104.981 60.0172C102.22 60.0162 99.9802 57.7769 99.979 55.0155C99.9778 52.2541 102.215 50.0164 104.977 50.0174C107.738 50.0183 109.978 52.2577 109.979 55.0191ZM129.97 60.0261C132.731 60.0271 134.969 57.7893 134.967 55.0279C134.966 52.2665 132.727 50.0272 129.965 50.0262C127.204 50.0253 124.966 52.263 124.968 55.0244C124.969 57.7858 127.208 60.0251 129.97 60.0261ZM80.0029 84.9986C82.7643 84.9996 85.0019 82.7618 85.0007 80.0004C84.9995 77.2391 82.7599 74.9997 79.9986 74.9987C77.2372 74.9978 74.9996 77.2355 75.0008 79.9969C75.002 82.7583 77.2415 84.9976 80.0029 84.9986ZM109.99 80.0093C109.991 82.7706 107.753 85.0084 104.992 85.0074C102.231 85.0064 99.9911 82.7671 99.9899 80.0057C99.9887 77.2443 102.226 75.0066 104.988 75.0076C107.749 75.0085 109.989 77.2479 109.99 80.0093ZM129.98 85.0163C132.742 85.0173 134.979 82.7795 134.978 80.0181C134.977 77.2568 132.738 75.0174 129.976 75.0164C127.215 75.0155 124.977 77.2532 124.978 80.0146C124.98 82.776 127.219 85.0153 129.98 85.0163ZM85.0115 104.991C85.0127 107.752 82.7752 109.99 80.0138 109.989C77.2524 109.988 75.0128 107.748 75.0116 104.987C75.0104 102.226 77.248 99.9879 80.0094 99.9889C82.7708 99.9899 85.0103 102.229 85.0115 104.991ZM105.003 109.998C107.764 109.999 110.002 107.761 110.001 105C110 102.238 107.76 99.9988 104.999 99.9979C102.237 99.9969 99.9998 102.235 100.001 104.996C100.002 107.757 102.242 109.997 105.003 109.998ZM134.989 105.008C134.99 107.77 132.753 110.007 129.991 110.007C127.23 110.006 124.991 107.766 124.989 105.005C124.988 102.243 127.226 100.006 129.987 100.007C132.749 100.008 134.988 102.247 134.989 105.008ZM80.0247 134.979C82.7861 134.98 85.0237 132.742 85.0225 129.981C85.0213 127.219 82.7818 124.98 80.0204 124.979C77.259 124.978 75.0214 127.216 75.0226 129.977C75.0238 132.739 77.2633 134.978 80.0247 134.979ZM110.012 129.99C110.013 132.751 107.775 134.989 105.014 134.988C102.252 134.987 100.013 132.748 100.012 129.986C100.011 127.225 102.248 124.987 105.009 124.988C107.771 124.989 110.01 127.228 110.012 129.99ZM130.002 134.997C132.764 134.998 135.001 132.76 135 129.998C134.999 127.237 132.759 124.998 129.998 124.997C127.236 124.996 124.999 127.234 125 129.995C125.001 132.756 127.241 134.996 130.002 134.997Z" fill="#D1E3FA"/>
</svg>
