<svg width="17" height="24" viewBox="0 0 17 24" fill="none" xmlns="http://www.w3.org/2000/svg">
<path d="M16.25 9H15.5C15.0856 9 14.75 9.33562 14.75 9.75V12C14.75 15.5063 11.727 18.3197 8.15047 17.9709C5.03328 17.6667 2.75 14.8645 2.75 11.7328V9.75C2.75 9.33562 2.41438 9 2 9H1.25C0.835625 9 0.5 9.33562 0.5 9.75V11.6325C0.5 15.8344 3.49859 19.5802 7.625 20.1492V21.75H5C4.58563 21.75 4.25 22.0856 4.25 22.5V23.25C4.25 23.6644 4.58563 24 5 24H12.5C12.9144 24 13.25 23.6644 13.25 23.25V22.5C13.25 22.0856 12.9144 21.75 12.5 21.75H9.875V20.167C13.8927 19.6158 17 16.1672 17 12V9.75C17 9.33562 16.6644 9 16.25 9ZM8.75 16.5C11.2353 16.5 13.25 14.4853 13.25 12H9.25016C8.97406 12 8.75 11.8322 8.75 11.625V10.875C8.75 10.6678 8.97406 10.5 9.25016 10.5H13.25V9H9.25016C8.97406 9 8.75 8.83219 8.75 8.625V7.875C8.75 7.66781 8.97406 7.5 9.25016 7.5H13.25V6H9.25016C8.97406 6 8.75 5.83219 8.75 5.625V4.875C8.75 4.66781 8.97406 4.5 9.25016 4.5H13.25C13.25 2.01469 11.2353 0 8.75 0C6.26469 0 4.25 2.01469 4.25 4.5V12C4.25 14.4853 6.26469 16.5 8.75 16.5Z" fill="white"/>
</svg>
