<svg width="136" height="28" viewBox="0 0 136 28" fill="none" xmlns="http://www.w3.org/2000/svg">
<g clip-path="url(#clip0)">
<path d="M4.24924 28C3.21953 28 2.44065 27.736 1.91261 27.2079C1.38455 26.6534 1.12052 25.8746 1.12052 24.8712V3.12871C1.12052 2.12541 1.38455 1.35974 1.91261 0.831682C2.44065 0.277227 3.20634 0 4.20963 0C6.24263 0 7.25914 1.0429 7.25914 3.12871V22.8118H17.873C19.642 22.8118 20.5264 23.6699 20.5264 25.3861C20.5264 27.1287 19.642 28 17.873 28H4.24924Z" fill="white"/>
<path d="M37.8364 2.64859L40.2054 1.46411C39.7567 0.566804 38.8396 0 37.8364 0C36.8332 0 35.9162 0.566804 35.4675 1.46411L37.8364 2.64859ZM49.1876 25.3508L48.204 27.8101C49.2248 28.2183 50.3921 27.9534 51.1365 27.1442C51.8812 26.3349 52.0483 25.1498 51.5565 24.1663L49.1876 25.3508ZM24.1164 24.1663C23.4622 25.4747 23.9925 27.0656 25.3008 27.7198C26.6092 28.374 28.2001 27.8437 28.8543 26.5352L24.1164 24.1663ZM35.4675 3.83308L46.8186 26.5352L51.5565 24.1663L40.2054 1.46411L35.4675 3.83308ZM35.4675 1.46411L27.9 16.5989L32.638 18.9679L40.2054 3.83308L35.4675 1.46411ZM27.9 16.5989L24.1164 24.1663L28.8543 26.5352L32.638 18.9679L27.9 16.5989ZM50.1711 22.8916L31.2527 15.3243L29.2854 20.2426L48.204 27.8101L50.1711 22.8916Z" fill="white"/>
<path d="M57.9343 28C56.0754 28 55.1459 27.0318 55.1459 25.0955V3.02074C55.1459 2.03965 55.3783 1.29092 55.843 0.774552C56.3335 0.258184 56.9789 0 57.7794 0C58.4507 0 58.9799 0.142001 59.3672 0.426005C59.7544 0.684188 60.1933 1.1231 60.6839 1.74274L73.2317 17.7372V2.86583C73.2317 0.955281 74.1611 0 76.02 0C77.879 0 78.8084 0.955281 78.8084 2.86583V25.2117C78.8084 26.0636 78.589 26.7478 78.1501 27.2642C77.7112 27.7548 77.1174 28 76.3686 28C75.6457 28 75.0647 27.858 74.6258 27.574C74.2127 27.29 73.761 26.8381 73.2704 26.2185L60.7227 10.2241V25.0955C60.7227 27.0318 59.7932 28 57.9343 28Z" fill="white"/>
<path d="M86.9899 28C84.8452 28 83.773 26.9277 83.773 24.783V3.21703C83.773 1.07234 84.8452 0 86.9899 0H94.7346C99.5006 0 103.194 1.21797 105.816 3.65391C108.437 6.06335 109.748 9.50544 109.748 13.9802C109.748 18.4548 108.437 21.9101 105.816 24.3461C103.194 26.782 99.5006 28 94.7346 28H86.9899ZM89.929 22.956H94.3771C100.335 22.956 103.313 19.9641 103.313 13.9802C103.313 8.0227 100.335 5.04398 94.3771 5.04398H89.929V22.956Z" fill="white"/>
<path d="M117.929 28C115.784 28 114.712 26.9277 114.712 24.783V3.21703C114.712 1.07234 115.784 0 117.929 0H131.79C133.405 0 134.213 0.794326 134.213 2.38298C134.213 3.99811 133.405 4.80568 131.79 4.80568H120.59V11.3589H130.877C132.518 11.3589 133.34 12.1665 133.34 13.7816C133.34 15.3967 132.518 16.2043 130.877 16.2043H120.59V23.1944H131.79C133.405 23.1944 134.213 23.9887 134.213 25.5773C134.213 27.1924 133.405 28 131.79 28H117.929Z" fill="white"/>
</g>
<defs>
<clipPath id="clip0">
<rect width="135.333" height="28" fill="white"/>
</clipPath>
</defs>
</svg>
