<svg width="36" height="55" viewBox="0 0 36 55" fill="none" xmlns="http://www.w3.org/2000/svg">
<path fill-rule="evenodd" clip-rule="evenodd" d="M32.5833 17.8125V37.5C32.5833 45.5542 26.0542 52.0833 18 52.0833C9.94585 52.0833 3.41667 45.5542 3.41667 37.5V17.8125C3.41667 9.75835 9.94585 3.22917 18 3.22917C26.0542 3.22917 32.5833 9.75835 32.5833 17.8125ZM0.5 17.8125C0.5 8.14752 8.33502 0.3125 18 0.3125C27.665 0.3125 35.5 8.14752 35.5 17.8125V37.5C35.5 47.165 27.665 55 18 55C8.33502 55 0.5 47.165 0.5 37.5V17.8125ZM18.0001 34.2187C16.0671 34.2187 14.5001 35.7857 14.5001 37.7187V41.6562C14.5001 43.5892 16.0671 45.1562 18.0001 45.1562C19.9331 45.1562 21.5001 43.5892 21.5001 41.6562V37.7187C21.5001 35.7857 19.9331 34.2187 18.0001 34.2187Z" fill="white"/>
</svg>
