<svg width="1400" height="166" viewBox="0 0 1400 166" fill="none" xmlns="http://www.w3.org/2000/svg">
<path fill-rule="evenodd" clip-rule="evenodd" d="M152.878 107.65C240.281 79.4278 349.822 50.3456 438.026 47.0899C540.567 43.3052 617.119 71.7317 693.435 100.276L694.568 100.7C770.51 129.104 846.34 157.468 947.769 154.598C1038.53 152.029 1151.3 125.198 1241.46 98.9707C1286.52 85.8619 1325.91 72.9135 1354.02 63.2425C1368.08 58.4072 1379.32 54.3914 1387.04 51.585C1390.91 50.1818 1393.89 49.0809 1395.91 48.3312C1396.92 47.9563 1397.68 47.6692 1398.2 47.4759C1398.45 47.3793 1398.65 47.3061 1398.78 47.2572L1398.92 47.202L1398.96 47.1883L1398.97 47.1849C1398.97 47.1842 1398.97 47.1838 1399.49 48.5473C1400.01 49.9108 1400 49.9112 1400 49.912L1399.99 49.9156L1399.96 49.9298L1399.81 49.9858C1399.68 50.0353 1399.48 50.1091 1399.22 50.2063C1398.7 50.4007 1397.93 50.689 1396.92 51.065C1394.9 51.8172 1391.91 52.9205 1388.04 54.3263C1380.3 57.1379 1369.05 61.1592 1354.97 66.0006C1326.82 75.6831 1287.39 88.6465 1242.28 101.771C1152.08 128.011 1039.01 154.934 947.852 157.513C845.851 160.399 769.566 131.866 693.673 103.479L692.413 103.007C616.099 74.4641 540.035 46.2434 438.133 50.0046C350.355 53.2445 241.136 82.2167 153.775 110.425C110.113 124.523 71.9454 138.419 44.6941 148.79C31.0688 153.976 20.1735 158.28 12.6858 161.287C8.94189 162.79 6.05005 163.969 4.09485 164.772C3.11731 165.174 2.3739 165.481 1.87524 165.688C1.62598 165.792 1.43787 165.87 1.31226 165.922L1.1709 165.981L1.13574 165.996L1.12708 166C1.12524 166.001 1.12439 166.001 0.560669 164.656C-0.00305176 163.311 -0.00183105 163.311 0.000244141 163.31L0.00952148 163.306L0.0458984 163.291L0.189575 163.231C0.31665 163.178 0.506348 163.099 0.757324 162.994C1.25916 162.786 2.00586 162.477 2.98669 162.074C4.94861 161.269 7.84753 160.087 11.5988 158.58C19.1013 155.567 30.0132 151.257 43.6567 146.064C70.9429 135.68 109.158 121.767 152.878 107.65ZM152.878 84.2747C240.281 56.0528 349.822 26.9706 438.026 23.715C540.567 19.9302 617.119 48.3567 693.435 76.9005L694.569 77.3246C770.51 105.729 846.34 134.093 947.769 131.223C1038.53 128.654 1151.3 101.823 1241.46 75.5958C1286.52 62.487 1325.91 49.5386 1354.02 39.8676C1368.08 35.0322 1379.32 31.0164 1387.04 28.21C1390.91 26.8068 1393.89 25.706 1395.91 24.9562C1396.92 24.5813 1397.68 24.2942 1398.2 24.1009C1398.45 24.0043 1398.65 23.9312 1398.78 23.8822L1398.92 23.8271L1398.96 23.8133L1398.97 23.8099C1398.97 23.8092 1398.97 23.8089 1399.49 25.1723C1400.01 26.5358 1400 26.5362 1400 26.5371L1399.99 26.5407L1399.96 26.5549L1399.81 26.6109C1399.68 26.6604 1399.48 26.7341 1399.22 26.8313C1398.7 27.0257 1397.93 27.314 1396.92 27.6901C1394.9 28.4422 1391.91 29.5456 1388.04 30.9514C1380.3 33.7629 1369.05 37.7843 1354.97 42.6256C1326.82 52.3081 1287.39 65.2715 1242.28 78.3963C1152.08 104.636 1039.01 131.559 947.852 134.138C845.851 137.024 769.566 108.491 693.673 80.1035L692.413 79.6324C616.099 51.0891 540.035 22.8685 438.133 26.6297C350.355 29.8696 241.136 58.8417 153.775 87.0503C110.113 101.148 71.9454 115.044 44.6941 125.415C31.0688 130.601 20.1735 134.905 12.6858 137.912C8.94189 139.415 6.05005 140.594 4.09485 141.397C3.11731 141.799 2.3739 142.106 1.87524 142.313C1.62598 142.417 1.43787 142.495 1.31226 142.548L1.1709 142.607L1.13574 142.621L1.12708 142.625C1.12524 142.626 1.12439 142.626 0.560669 141.281C-0.00305176 139.936 -0.00183105 139.936 0.000244141 139.935L0.00952148 139.931L0.0458984 139.916L0.189575 139.856C0.31665 139.803 0.506348 139.724 0.757324 139.619C1.25916 139.411 2.00586 139.102 2.98669 138.699C4.94861 137.894 7.84753 136.712 11.5988 135.205C19.1013 132.192 30.0132 127.882 43.6567 122.69C70.9429 112.305 109.158 98.3917 152.878 84.2747ZM438.026 0.340424C349.822 3.59604 240.281 32.6783 152.878 60.9002C109.158 75.0172 70.9429 88.9306 43.6567 99.3149C30.0132 104.507 19.1013 108.818 11.5988 111.831C7.84753 113.337 4.94861 114.519 2.98669 115.325C2.00586 115.728 1.25916 116.037 0.757324 116.245L0.412109 116.388L0.189575 116.481L0.0458984 116.541L0.00952148 116.556L0.000244141 116.56C-0.00183105 116.561 -0.00305176 116.561 0.560669 117.906C1.12439 119.251 1.12524 119.251 1.12708 119.25L1.13574 119.247L1.1709 119.232L1.31226 119.173C1.43787 119.121 1.62598 119.042 1.87524 118.939C2.3739 118.732 3.11731 118.424 4.09485 118.023C6.05005 117.22 8.94189 116.041 12.6858 114.537C20.1735 111.53 31.0688 107.226 44.6941 102.041C71.9454 91.6698 110.113 77.7739 153.775 63.6757C241.136 35.4671 350.355 6.49503 438.133 3.25511C540.035 -0.506088 616.099 27.7146 692.413 56.2578L693.673 56.729C769.566 85.116 845.851 113.65 947.852 110.764C1039.01 108.184 1152.08 81.2615 1242.28 55.0218C1287.39 41.897 1326.82 28.9335 1354.97 19.2511C1369.05 14.4097 1380.3 10.3883 1388.04 7.5768C1391.91 6.17102 1394.9 5.06769 1396.92 4.31552C1397.93 3.93944 1398.7 3.65115 1399.22 3.45674C1399.48 3.35953 1399.68 3.2858 1399.81 3.2363L1399.96 3.18031L1399.99 3.16612L1400 3.16251C1400 3.16168 1400.01 3.16124 1399.49 1.79776C1398.97 0.434296 1398.97 0.434631 1398.97 0.435349L1398.96 0.438751L1398.92 0.452515L1398.78 0.50766C1398.65 0.556595 1398.45 0.629745 1398.2 0.726379C1397.68 0.919632 1396.92 1.20676 1395.91 1.58163C1393.89 2.33141 1390.91 3.43225 1387.04 4.83545C1379.32 7.64186 1368.08 11.6576 1354.02 16.493C1325.91 26.164 1286.52 39.1124 1241.46 52.2212C1151.3 78.4487 1038.53 105.28 947.769 107.848C846.34 110.718 770.51 82.3546 694.569 53.95L693.435 53.526C617.119 24.9822 540.567 -3.44437 438.026 0.340424Z" fill="url(#paint0_linear_303_2974)"/>
<defs>
<linearGradient id="paint0_linear_303_2974" x1="802.529" y1="397.943" x2="699.127" y2="9.3378" gradientUnits="userSpaceOnUse">
<stop stop-color="#4F5763"/>
<stop offset="1" stop-color="#222730"/>
</linearGradient>
</defs>
</svg>
