<svg width="1401" height="143" viewBox="0 0 1401 143" fill="none" xmlns="http://www.w3.org/2000/svg">
    <path fill-rule="evenodd" clip-rule="evenodd"
        d="M438.026 24.0899C349.822 27.3456 240.281 56.4278 152.878 84.6497C109.158 98.7667 70.9429 112.68 43.6567 123.064C30.0132 128.257 19.1013 132.567 11.5988 135.58C7.84753 137.087 4.94861 138.269 2.98669 139.074C2.00586 139.477 1.25916 139.786 0.757324 139.994C0.506348 140.099 0.31665 140.178 0.189575 140.231L0.0458984 140.291L0.00952147 140.306L0.000244129 140.31C-0.00183107 140.311 -0.00305177 140.311 0.560669 141.656C1.12439 143.001 1.12524 143.001 1.12708 143L1.13574 142.996L1.1709 142.981L1.31226 142.922C1.43787 142.87 1.62598 142.792 1.87524 142.688C2.3739 142.481 3.11731 142.174 4.09485 141.772C6.05005 140.969 8.94189 139.79 12.6858 138.287C20.1735 135.28 31.0688 130.976 44.6941 125.79C71.9454 115.419 110.113 101.523 153.775 87.4252C241.136 59.2167 350.355 30.2445 438.133 27.0046C540.035 23.2434 616.099 51.4641 692.413 80.0074L693.673 80.4785C769.566 108.866 845.851 137.399 947.852 134.513C1039.01 131.934 1152.08 105.011 1242.28 78.7713C1287.39 65.6465 1326.82 52.6831 1354.97 43.0006C1369.05 38.1592 1380.3 34.1379 1388.04 31.3263C1391.91 29.9205 1394.9 28.8172 1396.92 28.065C1397.93 27.689 1398.7 27.4007 1399.22 27.2063C1399.48 27.1091 1399.68 27.0353 1399.81 26.9858L1399.96 26.9298L1399.99 26.9156L1400 26.912C1400 26.9112 1400.01 26.9108 1399.49 25.5473C1398.97 24.1838 1398.97 24.1842 1398.97 24.1849L1398.96 24.1883L1398.92 24.202L1398.78 24.2572C1398.65 24.3061 1398.45 24.3793 1398.2 24.4759C1397.68 24.6692 1396.92 24.9563 1395.91 25.3312C1393.89 26.0809 1390.91 27.1818 1387.04 28.585C1379.32 31.3914 1368.08 35.4072 1354.02 40.2425C1325.91 49.9135 1286.52 62.8619 1241.46 75.9707C1151.3 102.198 1038.53 129.029 947.769 131.598C846.34 134.468 770.51 106.104 694.569 77.6995L693.435 77.2755C617.119 48.7317 540.567 20.3052 438.026 24.0899ZM438.026 0.714966C349.822 3.9706 240.281 33.0528 152.878 61.2747C109.158 75.3917 70.9429 89.3051 43.6567 99.6895C30.0132 104.882 19.1013 109.192 11.5988 112.205C7.84753 113.712 4.94861 114.894 2.98669 115.699C2.00586 116.102 1.25916 116.411 0.757324 116.619C0.506348 116.724 0.31665 116.803 0.189575 116.856L0.0458984 116.916L0.00952147 116.931L0.000244129 116.935C-0.00183107 116.936 -0.00305177 116.936 0.560669 118.281C1.12439 119.626 1.12524 119.626 1.12708 119.625L1.13574 119.621L1.1709 119.607L1.31226 119.548C1.43787 119.495 1.62598 119.417 1.87524 119.313C2.3739 119.106 3.11731 118.799 4.09485 118.397C6.05005 117.594 8.94189 116.415 12.6858 114.912C20.1735 111.905 31.0688 107.601 44.6941 102.415C71.9454 92.0443 110.113 78.1485 153.775 64.0503C241.136 35.8417 350.355 6.86957 438.133 3.62965C540.035 -0.131531 616.099 28.0891 692.413 56.6324L693.673 57.1035C769.566 85.4906 845.851 114.024 947.852 111.138C1039.01 108.559 1152.08 81.636 1242.28 55.3963C1287.39 42.2716 1326.82 29.3081 1354.97 19.6256C1369.05 14.7843 1380.3 10.7629 1388.04 7.95136C1391.91 6.54558 1394.9 5.44223 1396.92 4.69008C1397.93 4.314 1398.7 4.0257 1399.22 3.83128C1399.48 3.73409 1399.68 3.66034 1399.81 3.61084L1399.96 3.55486L1399.99 3.54066L1400 3.53706C1400 3.53622 1400.01 3.53578 1399.49 2.17232C1398.97 0.808838 1398.97 0.809174 1398.97 0.809906L1398.96 0.813309L1398.92 0.827072L1398.78 0.882202C1398.65 0.931137 1398.45 1.0043 1398.2 1.10094C1397.68 1.29419 1396.92 1.5813 1395.91 1.95618C1393.89 2.70596 1390.91 3.80679 1387.04 5.21001C1379.32 8.01642 1368.08 12.0322 1354.02 16.8676C1325.91 26.5386 1286.52 39.487 1241.46 52.5958C1151.3 78.8233 1038.53 105.654 947.769 108.223C846.34 111.093 770.51 82.7292 694.569 54.3246L693.435 53.9006C617.119 25.3567 540.567 -3.06982 438.026 0.714966Z"
        fill="url(#paint0_linear_303_2974)" />
    <defs>
        <linearGradient id="paint0_linear_303_2974" x1="802.529" y1="342.283" x2="724.852" y2="2.51618"
            gradientUnits="userSpaceOnUse">
            <stop stop-color="#4F5763" />
            <stop offset="1" stop-color="#222730" />
        </linearGradient>
    </defs>
</svg>